<mxfile host="65bd71144e">
    <diagram id="DER4ps8lzxZ1ZhA1jDNr" name="ページ1">
        <mxGraphModel dx="653" dy="335" grid="1" gridSize="10" guides="1" tooltips="1" connect="1" arrows="1" fold="1" page="1" pageScale="1" pageWidth="827" pageHeight="1169" math="0" shadow="0">
            <root>
                <mxCell id="0"/>
                <mxCell id="1" parent="0"/>
                <mxCell id="2" value="" style="rounded=0;whiteSpace=wrap;html=1;" parent="1" vertex="1">
                    <mxGeometry x="620" y="476.5" width="920" height="490" as="geometry"/>
                </mxCell>
                <mxCell id="14" value="&lt;span style=&quot;font-size: 18px;&quot;&gt;←&lt;/span&gt;" style="rounded=0;whiteSpace=wrap;html=1;" parent="1" vertex="1">
                    <mxGeometry x="1130" y="920" width="50" height="46.5" as="geometry"/>
                </mxCell>
                <mxCell id="16" value="&lt;font style=&quot;font-size: 18px;&quot;&gt;→&lt;/font&gt;" style="rounded=0;whiteSpace=wrap;html=1;" parent="1" vertex="1">
                    <mxGeometry x="1241" y="920" width="49" height="46.5" as="geometry"/>
                </mxCell>
                <mxCell id="17" value="" style="shape=image;verticalLabelPosition=bottom;labelBackgroundColor=default;verticalAlign=top;aspect=fixed;imageAspect=0;image=data:image/png,iVBORw0KGgoAAAANSUhEUgAAAQAAAAEACAYAAABccqhmAAAQAElEQVR4AeydCXxV1bX/w808gICiVlTq6/Cv2lotONDWNvWv8AKGSvvSwQ5OFftqW1+1U4CEKIiirVq1arFYpdpqowYTIBCJxoGZOPWprbZWBMqoKGSeeN/fNUHQJOSe4d6zz935rJ1zp7PP3r+9f2utvfc5a0dS7J9FwCLQJwIFBQWZpJMmTJhwycSJE+eSniVt5P1ijlcWFhaePW7cuNw+Mwj4F1YBBLyBbPESh8A555wzdNCgQZdGIpEKjrdRkotJJ5JG8r6AY2lXV9f96enpd02aNOlzKIpMPjNKrAIwqrlsYeOBQFFRUcaXv/zlUzs6Om6H6FdxzVGkvrgi6/9fnZ2d9/HbS6U0+K0x0leljKmALahFwEsEZMVbWlo+D/lv3LNnz1fIWwTn0K+IR6NQANPa2touGz9+/PB+fx2QL1UMFVxHmywCSY9Afn5+FiT+Em79dYAxhpRBikWGc/6PU1NTf2SKErAKIJbmtb8NLQJjx47Nzs3NHUcF55A+TUonORGjlIBVAE6a2J4TKgQKCwtzDj744IlUag4W/HiOaSQ3YowSsArATTPbc41HQEt4TOCdw3hfbv/HqVAqyQsJtBLoqaBVAD1I2GPSIcCYPy8tLa0Iqy/yfxgAvOZD4JWA1xUGQysWgeAjwFJfHmP+cyH/tZR2JGkQyQ8JtBKwCsCPJrd5BhqBSZMmDWap77uQfyYFPYzktwRWCVgF4HfT2/wDhcCZZ555EGv8F7LUV8a4/9A4Fi4wSmDfOlsFsC8a9nWoEdBdepmZmRdj+adT0RGkeEvglIBVAPHuAvZ6CUFg4sSJw9rb23/AxX9JOoSUKAmUErAKIFHdwF43bgiI/Lj7P+aCV5AOJiVaAqMErAJIdFew1/cVAWb7RbbLcfsv40JBukdf5Yr7bcNgsJ9YBbAfHPZNmBAoLCw8pKmp6edY/x9Sr2GkoEnClYBVAEHrErY8niBQUFAworOzsxjyf58Mh5KCKglVAlYBBLVb2HI5RmDy5MmHRiKRUtz+75EOcpxR/E5MmBKwCiB+jWyvFAcERP62tjYF8TiPyw0hmSK+K4HegLAKoDdU7GdGIjB+/PgPQf7ZFP5bpMEk0yTuSsAqANO6iC3vBxAoKyuLTJgwYVRaWpoe6vkGP8gjmSpxVQJWAZjaTWy5owiI/OvWrfsIY34F8hhoCK/ouQH+FzclYBVAgHuBLVr/CLDGn1pfX38sM/1zSJP4dQ4pLCIlcFlqauqPGdq4vn+hL1CsAugLGft5oBHA8qc1NDSc0NXVJfIrRHd2oAvsrHDDWMXQzUK+KQGrAJw1jD0rgQhMmTIlfc2aNaO73f4zIUlWAovj96V9VQJWAfjdfDZ/TxHA7c/YtGnTaWSqCb8vcjRuMw7KHKv4pgSsAoi1KezvE4ZAQUFBZktLy+cZ74v8YylIrGG7OcVYcawE+quxVQD9oWO/CwwC+d0x+0V+XP7RJKdhuxNRpzYuup6kIwfH4rkSsArAcVvYE+OFQE/Mfkh/HQrATcz+eBV53+uI9Ksp91Q+XE3Sew6OxVMlYBWA43awJ8YDgcLumP0iP9c7juQ2Zj9ZxE1E9tWdnZ1Tm5qaKnXkyoFSAlYB0CJWgolAT8x+Sqcx/8c4ehWzn6x8l1ausIplyuLBgwevqaura9Ax3kqAMvQrVgH0C4/9MlEIMObfG7Mf9/nDJJP6aiseyyqwK87Ly1tbXl4uTyBFx6ApAZNABU8ryYAAS33xitnvB5yy/CvJuHjkyJF7yc/7qARNCVgFEG0W+y8oCLDUN6S5ufk8LGi8YvZ7WXWRf4Xc/COOOGLd3Llz23vLPEhKwCqA3lrIfpYQBBSznwtfiLs/gxTPmP1c1rVEyc+Yf+rRRx/dJ/l7rhIPJdBzrf6OVgH0h479Lm4InHPOOUMzMjKmRCKRaVw0ETH7uaxj2Uv+o446qr4vy//+3IOgBKwCeH+r2PdxR0BhuxWzH7f/F1w8kTH7uXzM0oq3spxUHAv5e66SaCVgFUBPS9hjQhAQ+SFPkGL2x4KDLP/TjPmLt27d+sxALf++F2DCM2P37t2npKamKpLRqXznxe3NA75ZyCoAELeSGATo/HrmPYgx+wcCiMj/lMi/Y8eOZ+vr63ud8OsvI+qf0dDQcDLkv5rfeUV+skpJ4d+AlIBVACBlJf4IFAY/Zn9/oIj8T+K5FG/fvv05N+RnzkOWX083emH531/mAyoBqwDeD5l97zsCLPWNkOWEQEGP2d8bFrrJ5wnKPhW3/3mn5G9qahrTbfn9In9P2ftVAlYB9MBkj3FBQGG7sXomxezfFxeRv66trU339juy/Apmwph/NJlejRLxm/xcJip9KgGrAKL42H/xQEDkhzwmxuwXPD3kn0Ydnq+rq+vQh7EkkX/Dhg2juy2/4hn4EsykjzL1qgSsAugDLfuxtwiMfzdm/zXkamLM/ij5Waqc6pb8eD8a838WHOJJfi4XFSmBS9PS0i7UfRf6xCoAoWCTbwiU7R+z/+tcyLSY/S2U+XHNWbS2tr7g1PJv3LjxM92WP1HkpxpRUYThi1BmY5iLybQKIIqJ/ecHAiK/YvYPGjRIj/OaGLO/hbI/zli9uLm5+a9Oyb9+/fqTyEdj/s+BcyIsP5fdK+L8UZTnu11dXcP1Zu839oVFwCsEWOOOxuwnP5G/kKNpMftF/scodzEz9v/rlPxvvPHGibjccvs/T16+k59rDERyUWpnpaenf9UqgIHAZX8TEwJY/mjMfjqZQnj9JyebFrO/hbF6Lam4oaHhRTfkx+0PGvlpjqhk0j6fsgogioX95xUCmulWzH46vsj//8nXtJj9GvPX4iJP3bVr10tOyC8FyJj/02CgO/xOB4OgWH6K8q5QvyySVQDvwmH/e4EAbn80Zj8dS+T/AnkGruNTpv5Ebv8yLGOxG/KvWLFCgUsDS34BQB3lAZxgPQChYZNrBDSjzETZ6d3k1xq3H7e2ui5nPxmI/I9CjOLc3FzHll/k15gfHKQA4+r99FO33r7SfQybrALoDRr7WUwI5Ofnq6OfwUnap8+0mP0pkLWZVEMqzsnJebm8vLyTusQkcvtXrlx5AhNrV5NP0MmvummoU28VgKCwyTECitkPacZHIhGRX66vSRt2RMmP1X9U6/xZWVl/c0r+1atXfwrLL7df25VJITrGNE4n6oGml60CiBPaYbxMYWFhzvDhw8+OQH7qZ1rM/h7y11D2X+bl5f3dCfnxftKWL1/+Say+ZvvzycsE8ndRzjdJz1gFAApWYkdAMfs7Ojomc6bW+U2L2R8lP2VfSpLb/4pT8mdmZh6P2z8bBZBQ8lOPWOQtfjyPci+3CgAkrMSGAFZPMfu/huUX+UfhQhvVjyBrMzVewtEx+VnxSGXIcBxuv8j/JfIzwfJTzJRG6l2N8r5vwYIFbxvVcCq9TYlFgI7fE7NfD/YcQWkGkYwROn8zCmtJW1vbVAj8qhPLDwapu3fvPp51fmGgyU9TyK8NSp6j/ncOGTJEQ4AUqwCM6bqJLyhLfSbH7I+6/XT+ak34HXTQQa7Ij/czm7yMIT9lbUf5PU+a0dXVtQbFJ2VgFUDiaWVGCQyP2S/yN4H0YohQfNpppzkmf2Nj43GQX0t9Z0CmQFh+6nUg6aTML1PeGQ0NDcurq6u1AhA9x3oAURjsv/4Q0LPjBsfs30t+6lh8yimn/IM1e82C83bgIre/qanpWM4Q+XWLsynPN6iur0L+UoY8dfxp/Z9qvCtWAbyLg/3fBwIK293e3v4DOpCJMftVqyas/mLqUDxmzJh/OiV/S0vLJ8hM5D+To0nkf522K6HMj+L2a/KTl++JVQDvYWFfvQ8BkR/ymBqzX7WR27+IGe/isWPHvuaU/LjN/495A93kcxaZmkL+PZT137j+JUx4VldVVQkLPtpfrALYHw/7rhuByZMnH8zLK7Ael3FUFBkORok6/EImvByTH4URwe3/OBjI8o+j9oEjP2XqS7aK/Lj9lTU1NY19/cgqgL6QSeLPCwsLD2ltbf05EFxKGkYyTXrIP/XUU0/9F0TWODimOnBOpL6+/uN4QFrnH8/JRpEfpaXIyw/h9jdQ9j7FKoA+oUnOL1jqG4G7O5XaX0IaSjJNNOavYsxezGy3K/LjPRhHfhTWNtJM2vCBysrK3QdqPKsADoRQEn2P238obqMsx0VYkIMMrLpc3UqN+Wtra1+n/I4s/4oVKz4OgTTmNy2a0XbabzZj/ntRfruo/wHFKoADQpQcPxD56Tgzqe15pCEk0yRKfohbzJjXMflXrVr1sbS0tFkowMCT/30NtIP3c7Kzs+9etmzZO7wekFgFMCCYwv2jfWL2n0tNB5NME93f/giub/GSJUvWU3jNgHMYuGjMv2bNmo9iQTXhV8CZJgUxfROFdUN6evo8xvwDJj91tHcCCoRkTer0EyZMGIXF00M9XwcH02L2U+Towy2PMF6funjx4jf4wBH5u8OXm0h+Pdl3M8rvDj3cQ/1jEusBxARXeH5cVlYW6e70Ir+JMfvVGLL8C3hR7Ib8K1eu/A8IpOf5J5CXSZZ/J+W+jTmPWxctWrSTsscsVgHEDJn5J+i2Vpa4dFuryG9izH41Qg/5py5cuHADHziy/KtXrz4GD8g48lPft0lzMzMzb1q6dKm8AN7GLlYBxI6Z0Wdg+U2P2S/8GxmrV6Smpha7JT/5iPwTydQky/8OY/55lP1XFRUV0cd6Kb8jsQrAEWxmnhSCmP16sKeBzv8wbm/xI488spGWcGT5165d+2EUiJb6ziYPk8iv5b35rHbMqaqq0sw/xXcuVgE4x86oM3H7TY/ZHyU/oD9M0k0+mzg6Iv9TTz31Yc7VXn2mDX90Y899GRkZs1jn304dXItVAK4hDH4GBQUFmYbH7I+SH8v/EG6v3H7H5F+xYsWorKwsWf5JtJwxlp+6y/N5AK/lStz+bZTdE7EKwBMYg5tJfv7emP3arWcMHcmosN1CljKr8z/IcWplZeW/9VmsibmPyKpVq45mrVzkN8ryU+8GZvsfYqmzhPpvjbXu/f3eKoD+0DH8u7Fjx2Z3x+wX+RWzP820KnV3/gfb2tock586D1qzZs1RWE9N+Mny5/KZKdII+avAoZSlTk/JLwCsAhAKIUyF3TH76Tha6lPM/lTTqknZZfkeZMJvKktdmx2Wf9CZZ555FOcaR37q3xPAdMaYMWMcTXhS737FKoB+4THzy15i9hvXznR+PcZajvUrdkt+1sr1VN+XaU2TLH8LLr82Ki0dOnTo3mAm1MFTMa5jeFr7EGbGmH+/mP1U0aiw3ZQ3OuHH8S8QQLf3buG1ExmEIjwS8mvMfw4ZmER+Be18gjKXMnnraNMSzh2QWAUwIJjM+NGkSZMGM+b/FtZT8eqNi9kvlCm73H6RfxpjXsfkZ+VjJMtlIr92LzKN/CsY9pRu3br1xbq6Ou3iK2h8SVYB+AJr/DOlww/BYp7HezB4lwAAEABJREFUMtlVXP0wknHSTX4tdbmy/HhBI8lLcftNe8ahjSHPus7OztIhQ4Y8V19f3+53I1oF4DfCccifSa6D6DgXkUpJh8bhkp5fAsJqzH8/M/XTXCx1DTrjjDOOwAvSmN8o8tNu7aTnSQrIsra8vDy6cce+QPvx2ioAP1CNY56K2c/a9iUQR2G8RsTx0p5dqpv8f8Z7me6C/ClnnXXWh7KysowjP0B2gMFLkH8GY/4V1fts3MF3vopVAL7C62/mCtvd3t5+KcT5OVc6hGSiaMz/J+rg6iYXBTVhzD+bfIyy/DRYF8R/lWNpXl4eQ/66/Tbu4HNfxSoAX+H1L3ORn46jmP2XcxWF8OZgnMjt/xPeS6kbyy/yk4fW+b8KJiYFNVHMwtcoewmKaxlu/wc27vC7Ra0C8BthH/KfbH7MfqHiCfknTJhwOARSJJ//IlOTyK8HmTaisEpbW1uXVPWxcQd1iopf/6wC8AtZn/ItLCw8BLdfLr+pMfuFTPSpNojryvKz7HkYY2eRv4hMTSI/xU3Rbb2lTU1NVTX9bNyhH/qZrALwE12P82apbwRLfVOxGqbG7Bciuym/3P4Zbtx+kZ/lMrn9XyNT48iP4ipFAT7MoF+eEFVIjFgFkBjcY74qbv+hdJhSTryIZGLMfoqdIvLfl5mZ6dry4wUZSX6U3zYU11WkAW3cIdD8TFYB+ImuR3mL/G1tbTPpPKbG7BcScvvvhfwz3DzPLsvf0dFxNZNmxll+2k/P8WvIMuCNOwScn8kqAD/R9SBvzXBDft3aa2rMfqEg8v8xIyOjzAPya9MOE0OY78Dtvy43N/ce1vkV1ku4JDxZBZDwJui9AApgwQy36TH7VTm5/X/EZb/SLflxm2dCIhPJ/ybW/9fpDjbuEIB+JqsA/ETXYd4if3fM/uvJwrQbWyjyXomSH5f9Sma65f7u/SKWF3L7RX7O+QbJqJ2LIP5bTNz+BsX1uwULFiiUN1UIjlgFEJy2iJakqKgotb6+/lg6jshvWsTaaB26/+2iDvPdkl/zH5BfDzgZR35w2Anxf4sC+K3TjTvIw1exCsBXeGPLHMvfE7Nf5B/P2dkkE0VjXJH/KjeWX+Rn/mMmAHyTZJTlp7zated3zHv8ZqmLjTvIx1exCsBXeAee+T4x+6/Hcp7BmVkkE0Xkvwerl8zkl6s/j2XbXzPv4WrjDr87gFUAfiM8gPxx+/eN2X86p2SSTJQe8s9kpttx3Ppuyy+330TLvwu3fz4K8LoqDzbu8LsTWAXgN8IHyL8gBDH7u6uojn83Hd81+bViQJ4mLntqufNeZvuvdqMAqXtU4vHPKoB4oNzHNfJDELO/u2pR8jNZ52rHGll+yF/GEOhb5GvUmB+rr70LFNDkKtx+xyse1DuuYhVAXOF+72JjQxCzv7s2npGfFYMZppKfcj+I9+PqFuduPON6sAogrnC/e7HCEMTsf7cmKdql9g8eWf5SCPRt8h1CMkkaKWxlWlqaLxt3kLevYhWAr/B+MPNx48blYukm84027PgYR1Pb4J1IJCLyuxrvdrv9imX4HbAwivy4/U2UuZphy4yTTjrJ0X6FnN+rxOtDUztfvPDx9DqM+aMx++k4Wuf/MJkbF7OfMktE/rtQZLPdTHYZTn7t2rMMMBTB919lZWWK7sNbs8QqgDi116R9YvajAD4Up8v6cRm5/fPI2AvylzB2Ns7yU/dWyv0E7Vja2Nj4anl5eSefGSlWAcSh2VjqMz5mfzdMIv/v6fjXuFnjluVva2sT+b9Lvka5/ZS3lfovRwGUbN68+aU6nzfu4Hq+ilUAvsKbkhKGmP3dEPWQ/1oPyD+dPE0kv2L1rxX5c3NzX6j3aeMOsImbWAXgI9RhiNnfDY9n5GfCbBp5GhfYBNJrl57nKLtWK+px+6UMeGu2WAXgU/spbDed3fSY/UJH97XfidvryvIXFRWNAA/FMzSO/ICgjTte5Kgx/0omPrV5J2/NF6sAfGhDkR+LcRlZmxyzn+KniPy/Z7lvjhu3nzmQEUyWTQOT81NSUkyLZ6gJvr+jAEtzcnKeZMwf1407wMtXsQrAY3iZ4NImHVfQYbRpx3CPs49ndm9Thzu9ID/5TCOZSH4t7b0GBjMofy1uv+8bd8SzgXUtqwCEgkepMBwx+4WGyD+XTu/qiTZZfsgzlXxMJP8egNhAUiTmajwg3fTD23CJVQAetac6e1dXl8a4JsfsFxpy+3+Xnp7uBfmLyfACkmluP0VO2YLiKmXeAu5XhZL8qqRVAELBZcLtD0PMfqEQJX9GRsb1FRUVjgNZSBlCnl8y5r+QTE0k/1bKX5qdnf1wTQJ37QE738UqAJcQi/xt5sfsFwqekp8ML4JExpEfpbWNVMbQ5QHG/HHdtQfM4i5WAbiAPCQx+4WAglfe4ZXlJ0NjyY/SmoUC+FNlZaWCe1CVcItVAA7at6ysLBKSmP2qvYJX3sGY/1du3H5NgGI1f0GGRpKfcm+n/HNY6pvPOr9Cm/FR+MUqgBjbWOQPScx+1Xwn/27PzMx0FbxS5GcCVGP+72FBjXP7wUAbd9yQlpZ2F27/O7xPGrEKIIamLgpPzH7VOkp+3P4b3Fp+yG+s5cfdf4t0E4oroRt3qEESkawCGCDqWP6wxOxXjUX+27wgP+T5ORl+jzSUZJpo7uPWzs7O24K6cYffgFoFMACEQxSzX7XdicW+raWl5Ua3lh/y/4x0MZkaSX7KfTtK8OYgb9xBGX0VqwAOAC9uf1hi9qumUfKzbHljbW2t43X+7jH/TyH/FDI1kfxa8pzHpJ8rJUjdjRerAPppwoLumP38RLv1jOWYQTJVNNuvfepu8IL8gGDqHY96tFk7F7m605H6eyaJzMgqgD7Qz38vZr/i941mkii9j5+a8LHG/Brr3ujG3Z08efLBWP0rqLCp5N9N+e/DA3IVzoz6h0asAuilKfeJ2S/LfwI/SSOZKiL/LR0dHTe5JX97e7vc/u8DhIluv+7q+zNLfa72LKTuoRKrAN7XnIxvc4YPH342Fl+W/1i+TiWZKprlvhnyu9qhVpa/tbX1CqynkeSnLUX+Byn/jMrKyq2mNqYf5bYKYB9U3xez/6N8ZTI+UfJjtV3NcveQHxIZSX7asBHiP0L5py9evDhw5Kd8CRWTO7inwDHmD0vMfuHiGfkZL18OeUT+YcrYsNQE+Rez5Fm6cOHCzZRdz/hzsNKDgFUAIBGimP3UJkV3tv3GC8sP+X9Chv9NMo78KC1t3PEow59ShnTrqYOi+3Cwsi8CSa8AWOoLS8x+tetb/PtNZ2fnLW4n/LrJ/wPyM478lLmlq6urjlRKPf5RbvDGHdTFV0lqBRCimP3qJFHy88IV+YuKiobjPfwP+ZhKfkXsXU4dSrdv3/5yXYA37gDjhEvSKoAQxexXJxL5b+LFLW7uaRf5m5ubf8K4+VLyMtHyt1H2NXhAJcccc8zzYdi4g3bwVZJSAShsNxbi0kgkogdZDvEVYZ8zp8NrzH8jl7nVA/L/D/kZSX7K3U56llQyePDg+rlz52ojD2Cx0h8CSacARH46SRhi9qdQD1n+G5nw+q0b8o8fP354U1PTZeT3QzqLcZafcmvjjr9S9hLSKsb8odi1h7r4LkmlALSmDaJhiNnvKfnT09O1h4GR5Kc9O1GAf+NYihJ7qrq6WnMAvA22BKV0SaMACsMTs1995006/Q0kV5Zf3pDIjwX9EZmauIlJF2X/Jzho157HmPAL1a49tInvkhQKgKW+ESwJhSFmvzqEHuO9gReugliI/BBHbr/J5H8DBVBKPZbi9odu1x7a2HcJvQLA7Q9LzH51Bln+X/PidjdjfpEf4vyYZCr5UyD9ltTU1FJm/BdWVYV34w7a2lcJtQIQ+dvCEbNfnSBK/rS0NE/ID4E07jfR7RcWW1nBKcnKyqqoMXDjDlUgKCm0CoCZ7Q9B/msA+lzSYJLJoqi1vxL5FyxYoGg2juoiy8+JPzKZ/Hgt2rhjBvXA6y/XU368tOIUgdApgLKyUMXsV7tGyZ+RkXGHB+TXTL+WQI20/CI/ln8mxz9XJsnGHeoAfqZQKYAyyB+imP1qd8/Ij9XXDT66xddI8gNGdOOO7OzsP7LUlzQbd1BvXyU0CqAoXDH71eg7+He9F5Yfq6n7+k0mv7D4NUMg4zfuoE0DJaFQAFj+MMXsVwfZwbLl9azRu9qsQmN+kR+XWff3H6yMDUxa9tRzDnPdDIEMrHdcimy8AghZzH41+g4Ie11mZqarDi/yk9kPUCQmk1+BTW7t6OhwtfIBDlb6QMBoBYDbH6aY/WoiubpzcPvvdGPtusmvQB4K6GGq5Vcw09vxglw93ixQbeobAWMVQEG4YvarhUT+a3Nycrwi/+Vkair532bS8vcMX0K1cQftETgxUgHkhytmvzpFD/l/z+L2O/rASZLlhziK32cy+d+B+Hd3dnZeX1VVJVycQGHPGSACximAkMXsVzOpk8vyuyY/cweXkLRxh6mWfxflv7e1tfUalvq2Cxyb/EXAKAVQWFiYMzw8MfvVstux2Nfg9rsiv6IbkdkU8vopR1PJr7v67mepb2ZNTc026mElDggYowD2idmvDTtMj9mvphX5r83Ozp7nxu0X+dvb27VV18/I1Ejyo7gaSOVY/9Bu3EHbBFKMUACM+feN2T8KJAeRTJbtdPZrWlpa5iU7+WlEbdyxIBKJaOOOLby3EkcEAq8AQhazX02rse3stra2u5YtW+Z4wk+Wn7HyFDI02e1vQhEuYsKvpLKyUht3UB0r8UQg0AqApb4wxexXu8rtvxri/sEt+VEgF2M15fYbGdQUl18bd9QASslpp532Bke7aw8gxFsCqwBCFrNf7RolP27/3W7Jz5j/exDI5IjGLVj+x6lDSW5u7j/LyspCvWuPGj+oKZAKQO5tenr6JampqVMBbgTJaKGz6xn2Wbi6ri2/yA8YvyAZafkpt4J2Pt3R0VHS2Nj4N+ZAOvnMSoIQCJwC0M0sdPJQxOxXm4r8HK/meDdr244fY5VHxNDhIvIymvzgsKqrq6tk1KhRf62zu/bQnImVQCkAkZ8OooAVJt/JtrdFqcs23NxZHF2TPz09/XuM+X9J5kZafjDQRh3PUP7SvLy8Z+zGHSARAAmMApg8ebLWsEMRs1/tSoffBmFnYu3ucWv5Q0B+bdzxAriUgstq3P6k2biDOgdaAqEACsMVs1+bdmjMP5Mx/3y35M/IyLgIRWKs5af3a+OOl6lDCWP+p8FDcwB8bCUICCRcAbDUF6aY/VHy07BXkVyTPy0t7UKGECaTXxt3/EPkz8rKYshfZzfuoGMESRKqAHD7wxSzfy/5cXNdxa3ThF96evoFrIIU01lMXQXR0t56FJj263sUt99u3EFjBk0SpgBE/rbwxOyPkp/OfqUX5MftPx+rafIS6B46uu7sK2VFZ3FVkm7cAQaBl4QogJDF7I+Sn8m+K0n3MsZ1vNTHcJEnt98AABAASURBVGgI5D8PRTKNnmOq5afoKVupQ0lOTs6CGrtxh/AIbIqrAigrC13M/ij5sfplENeV2y/yQ5rzSdPpLcaSHyz0KO8MPJgHcfv1iC/VsRJUBOKmAET+kMXsj5Kfhp3BeP3eShcbVYSM/FfhCd3vBg8wtRInBOKiAIrCF7O/h/ylzNTf56azi/xYS7n9Rlt++quedbiGeR1XwyDyCYWYUgnfFQCWP2wx+6Pkx1Uvgfx/suSPdnWFMtc+Bq4edIrmZP/FFQFfFUAIY/bvJT9LdK72p5PlJ4/vokimM24+NK6t7u3FtHHHjdTj9wtcbFzqbZFsbgNFwDcFIPJv3LjxMxRkDh38dI6ZJNNlK+76dIjrBfm/AxglYGMy+d+i/Ld0dHTcsWjRIsXxp0pWTELANwUA+XVv/w+wDGMAJINkukSXtlAAria4FOGIocO3AUP3xZtM/p1M9t3e2tp669KlS9+iPla6ETDp4IsC0FN9gPB9yH82x1yS6eIZ+bGY3yHNIJlM/rdp0LlZWVk31tbWagjAWysmIuC5AtCMPy7hMYAh8g/haLqI/NOzs7Nduf2y/J2dnd/p7Ow0nfzvoNjvwhP6VUVFhSW/4b3bcwXQ1NQ0hDHyJDqJlECa4fhozD8N8t/v5qaWbvJ/G6s/A1xMtvy6y3E+SuzaKrtrj+Fd+93ie64A6OA5pBPp7DnvXsLY/1tRZFNxcx9wS37Gyt8CjzJwMZn8u6nDn8Hk6urqakU2NrZh/Sy4aXl7qgBw/zXZ9zFAOInOnsXRVNlKwadmZmb+xS35Ic25JKPJT1vqlt5yMCmrrKwUNry0EgYEPFUAO3fuzMbaaenPZOu/hQ5fnJOT45r8zIWcCx5X0lEOI5kqjdShgrrYjTtMbcF+yu2pAsjIyMjmWp8m6cghOQVPKI9x8jdRJKaTXxt3LKQVS1jq28LRSsgQ8EwBlJWVKa/D6fRa9zdZARyOyz67ubkZHhflxdrenJTHROi5nKeoQMZaftpRATyWtre3l5xyyikbqI+e8edgpS8ETPxcpPWk3HV1dZr8G01mugHIs3zJLxHiSAmEhfwAro07HsP1nz506NDXUO6K7sPHVsKGgGdEHTZsmMb9JwKQydaf4u+VmJSANjBtaGj4JmcbbfkpfyvW/0m8oOl4Qa8wCWo37gCUsIpnCqC1tVXEPwmgdOQQChmQEhD5mTT8RiQSmUmtjXX7Kbsi9q7kWLJ169YX8eo6eG0lxAh4ogDGjh2bTec/GZx08086xzBJv0pA5M/Nzf06VnMWlTaZ/IrVX08dSrOzs5+rr6/XRh68tTIQBEz9jScK4PDDD8/BZXRl/SGQ1pqXclwAmLtJQZJelUA3+b9GQY0mP20nS/8C2Jcy7l+D2y9lQLWshB0BTxRAS0uL3H6N/zUP4AgzOl4TJz7c1tZ2CR3ya3TGh3jfSAqK7KcERH7c/iIKdzXpcJKp0on39hL4lzKHsby6ulrDAFPrYssdIwKuFUBBQYGe8z8O0n6Ka+s1h9gFwjd0dHQsr6mp2bF48eIldEaFxr6QnJaRtCTFIeESVQIs812A238BZZ5NiUwmv2b3X6XtSvLy8hjy2407aM+kEtcKIDMzU+N/3frr2PqDuJadXsQSvcNrdcoUemNDVVXVX7BMX4Vol9FJ1/JdEFxTEf5myqKk17w0UoTz62BbAu7LcPuDomSNA9PkArtWAI2NjSK+3H8NA5xi0UBHXI4y0TzAfnngku5auHDhnXw/HiWg8Fmv8AONWTlYcYiAbur5N3iWMOSqRtFq+OUwK3uayQi4UgBFRUWpGRkZHwIA3QDkRgE0dnZ2Lt+wYUOfY36FnGJocD1K4rMog2u5ph5KUUfmpZUYEdCTjtMZxlQy5OoT8xjztD83EAFXCoC1f939dzKW5CDqPogUs3BuO2k9buiGgSw9KQgFHkEJQ4NPcZ7ccA0bYr5uEp+gACel1P9h3P4PeFx8biWJEHClAFJTU7Mhocb/jq0/1rwB8q/AssfUGRkabMcj+AmK4JPk8QfaLKbz+X3SCW2lXXuuwtt6oNLFRiZJB1w/FTb9K1cKoLm5Wev/bp/+a4LAy3fu3OnEFd2DItiYnZ19MYrgVBrjYZIdzwJCL7IdRTsbr+0+MFNkn15+Yj9KNgQcK4Bx48bl0qE0Hj8a0JyG/tJM9FuQ9yVm/VvIx5HgynbSqV8aOXLkN1AmXyJp6dCuZ7+H5g5ezkFR2o07AMLKewg4VgC47Fr+czv734hbuoKhhBPr/14tul/NnTu3nfmBNbi4Z6MEJpLW8FWy39L6JjjckJ6ePg9FaedL6BBW3kPAsQLAlVT0HykALQO+l2Nsr6IKoKWlxdPxO95AK4qg9s0338yn8+s+/b9TLHkbHJJKFK//ZpTsHQvsrj2eN3wYMnSkAHT3X1pa2vEMAT4BCIoDyMGRNOD+r6ipqfHEA3h/CVauXNmMIqhgrXs0ZT2f7zeTkkV2QvzbOjo6bl1kd+1JljaPuZ6OFABkysFt19q/G+uvcFP1DCV8n7STgsFjeRhC/BSEkkEJRDfuANubltpde2hyK30h4EgBdM/+nwShHCsAzo3e/dfe3u6p+99XRaUE5G1w3fX8Jsx3EmrjjnkoabtxBw1tpX8EYlYAuvsvJydnJESSB+Bq/R/yP854PS4KQDAwH7CZcmtnnrB6AVre08Ydc6rsxh1qct9SWDKOWQE0NDTkQiKtubvZ809hp15lWUqz0nGbnEPZaGnwJRTBCzSg42VHzg2iKIbCfRkZGbOop924I4gtFMAyxawAWE6S1dfsv45OqxSd/WeCKm7Wv6egp5566hZe6zFePUvAS/MFhabh1APMy1xZUVGhu/3Mr5StQVwQiFkBYP1195+r6D/UbDfkf3zLli1xVwBlZWUd1OE1ylAn4nA0WlQH6vMQ8xsllXbXHqPbMhGFj0kB6O4/Otrn6HR6Dj7VYYEVZVYPpAzo4R+H1+j3tNzcXLnIt0AcHfv9bcC/lCdVRXuULl68ODQeTcAxTwlT+WJSALiYmvXX5J+OTnGQ1V9Op/Vl7X8ghSovL1cYLK0GaGlQ8xADOS1QvwG/ZhTYEjyp0jFjxmykcPbRaECwEhsCsSqAbDqeq+U/iqfx6uMsJWrSireJkdGjR78Fge6hPm8mpgSurtqCJ7aMspcMGTLkXwxrulzlZk9OWgQGrAB09x8ofRLSfISO5zT0t6yUgn+4eviHcrgWkYZ6bKQ+d5KZSUpAKxlPsM5f0tjY+Kq8GcpvxSLgCIEBKwAsjpb9TuEqjt1/CCe3f0X3kawSK4sWLdIdc3qEWMfEFmZgVxf5V3R2dpZs3rxZSjTMNzQNDJE4/ypslxuwAkhPT48G/wAAxwoAaxt1/xm3JtT9pw49QpH2bOGfIgsFfUKwjXKuQxGXDB48+PmBRE/qqaQ9WgT6QmBACiA/Pz8N0uq5/xPIKIvkVBra29t9e/jHSaGqq6t3MbmpmXTdHRjIsTTEV9i05/GcSqjjOtz+IERHpihWTEdgQAogLS0tl87n9u4/hf7+XzyJwIWfpm47SLfRmEH0ArRs+jLlK2HMvxKFpWEARbViEXCPwIAUABZST/99hss5dv85dzcTV3VeP/tPvq6lsrJyN1a2moxeIgXJunZRrlfAbXpOTs6TbqImUS8rLhEI4+kDUQCD0tPT86i8q+CfnL+7ra2tdtmyZUEZ/1Ok96ShoUHLgn/kEwXR4JBwEfn/hfItwfrX4vYHznNKOEK2AK4ROKACYPyv2f+xWKJDSAf8fR8lklV9IyMjQ0+rBXKcjXXV/MRSyv8UyfcYBVyjPwHqPZv4gcb8duMOgLDiDwIHJPSwYcPk9rta/qPoDfToOiYAdRcgb4MpWNp3KKd2J0703YG6VbqEidfKqqqqRCujYDaWLZUnCBxQAbS2tmr5z+3Tf7tZu35sx44dgXT/e5BU0BBeP4YSeJSj7lngEHeJkp8x/0Pd5Yl7AewFP4hAWD/pVwHo7j/GoJ+i8qNITu/+k8v/Nu7/RhPWrnfu3PkOk25V1DfuXgCKZxvr/Fdy/QcY8wfaWwIfKyFAoF8FkJeX50XwD9388wTurBEdWoFEIeBTkHEx7Ru3MnO9bQxBZnHN+7QqwdGKRcB3BPpVAMyMa/zv9uk/uf3LmpubdfS9Ql5cYNeuXfICKskrXrcIa9eeObj981nn10Qpl7ZiEfAfgT4VQFlZWRqW8Ggs03EUI5PkVJqZ/HuZWXZjQnCprCx9rsYiP0Kl/Sbkm2B8Q1pa2l24/XEfdlA/KwdAIMxf96kAnn76abn/p1F5LQNyiF0gkGb/tfNP3Fzp2Eu5/xkovghzHyOY/BwPMY/gW6eBTzi1fyF/3XtwEzj9boHduKN/sOy3viDQpwKgU2rvv5O5qoYBHGIXOngDXkQt4/9Au/9TpkxJnzhx4rGkK9auXVtHmd+g/vOp8WSSYwXIuf3JTq5xK6sjty2yG3f0h5P9zkcE+lIAg7KysoZAYI3/3QT/1M01gXr4pwfL/Pz8LAh/+tlnn33dxo0bn6Ouz/Pdr0ink9w88MTpBxTt2nMHKyM32407DoiV/YGPCPSqACBHLpZJ7v9grj2I5ET08M/LWNPAjP0V0xD3/pwJEybck5ub+zqVqoP4P8MSH0dyusxJNjGJJhbnsbx6Q0VFhUmBSGKqZFh+HPZ69KoAdPcfxHX19B+E6iAPPWWXsKAVGs9PmjTpMKz8xVj7aib2tlGmCsr2XRr2MFKv9edzv2QX157PWv91VXbjDr8wtvnGgECvBGDJLodOKvffzfhfDxAVQbjZWFxFEY6hWM5/qvF8YWHh8ZB+OuP5lXgy67Hyc8nxP0mO68O5bkVPHN7b1tZ2NUt9QXzs2G397PkGIvABBYD7n4V7egKWyvUMOMSLixJQmVEyX8DK38J4/m8oL43pZ9IeeobBzRImWXgiWgW5n6W+q2pqauzGHZ5AajPxAoEPKADc/57lP0+spV9KANLnQfivkP7CeF530T0BID9Ecf0HxzRSIITyiPwPgkNppd24IxBtMtBCJMPvPqAAGhsbc+i0Wv7L9QoAOr9rT6BnPI+l/z7ufa1IT/keIhWRNFnJIXDSiDdSSSqxG3cErm1sgUBgPwWg8TNLU3rw52N8l0HyTJwoAZVH43lIP2PdunXPdnR0bEA53U5eZ1AwN8uTnO6vUE49xlvd2tpawpj/31xNIdE5WLEIBAeB/RTAtm3betx/z6z/vlWFuAf0BHDtsyD9FyH97Zs2bXod6/kCZCrjXM1LxGupbt9ix/ya8mrXnmXt7e0lw4cP1w5EeiIy5nzsCRYBvxHYTwHs2rVLxHe1/HegAkPkDygBSJ8H6b/KeP4hXPsdkF4bd36fvDQRuV8Z+Szo0kodn2D1oYQZ/3+Ul5crqGfQy2zL9z4EkuXtXnJpjA35hlJxBf/01b2GIFElwLXmY+nXcN3tkP5B3n+FJCUqduPhAAAEeElEQVTEwUhpxfovp34l27dv1wNQCbsHwkj0bKHjjsBeBVBXV5eD1dKymSez/weqCSTJgyxnkTTh6Pettwcqjhffi/yy/NOOPPJIu3GHF4jaPHxHYK8CYPlPs/+6/ddkC+w7YPtcQJN6enx3EcrscjyYsdnZ2YVM+K2aO3du+z6/sy8tAoFFYK8CYIZdxJcHoGNgC5zggsmlfx3Cz8dzOT89Pf1Elk3PYYnvRoj/LON9RT9OcBHt5d0ikEznRxUAk3BywT9NxUeQop9xtPIuAnLtn+XljZD+y7pLEsKfv3DhwvkLFix4naGTlAJfW7EImIdAlOy4/1r+83X23yRoILo24XicMk9jXuRLDQ0Nn120aNHlkH5xZWWlYhvI/edrKxYBsxGIKgDWq6UANP6PywRgACHTOv0WylVOuoTx/IlbtmwZD+lnL1myZCVWPjCPNFM+KxYBzxCI6G47LN4x5Kh76D29+488AyuM4zVR9zLHO0hfYw7keAj/ddJcXPxX6uvr9X1gy28L5g8CyZZrRHf/0fnl/ieD9W+lgVdC+Fmks3JyckZD9v8mPdQdmce69gBkJXkQiOjuv0gkIgUQxtn/PXg3isCziCb9CYpu9MiRI78I4XV//hPM2musz1dWLALJiUCEtethVN3t1l9kERjRrLzCfd0D+b/T3Nz8iZNPPnkSrv1NWPkX7Rp9YNrJFiQACERwhXUnnunWX0t1z4Dnr6nPBDwajee1VHdfbW3t1rKyMk3y8bUVi0DfCCTjN3Al8kkq7uu9/+TvuWDdm0mPkYpZm9ddeGOx8j/FvX+0qqpKj+J6fk2boUUgbAjIA/golQpC2CyK0a/Iim/mF39Ba13A+vzHGb6MY23+Wtbm7V14AGPFIhArAroP4COcFEgFgDuvpbiXKN9tEL4Q4n8UK/91LPzd1dXVG5nEs4/aAo4Vi4BTBKQAFJteE2dO8/D6PO0nsJxMS3HtP9fV1fUZSH/pkiVLFkN869oDjBXvEUjWHCOMoROtAOTaa6ecKhrhEiz9sU1NTfmQfiaEX4ul19o9X1mxCFgEvEYggoXVlljxXg+Xx/EayudOKjS5sbHxaCbvtFQ3F0tvH7ABFCsWgXggoElAbY+1k4vtIfkpsuTrIP0s0hcg/fFM4E3B0lfW1dUpdLaf17Z5WwQsAr0goDkATbItYMJtVy/fu/1IY/alEP5H5H8CpB8L6UtI9gEbt8ja8z1DIJkzijDG1jZVN0PS5yGpZt3d4KHx/CbyUcAMxes/EgtfAOFvxcV/BUsv199N/vZci4BFwEME5AGkQM71KIBzSdXkHeujr20Q/gXSdczaf2nEiBEfJb/zIP2DkD8eQwuKbMUiYBFwgkBUAehECLspJyfnApTA9ZBZXkGfcwL8RpOGtfxOsfBOOvLII8dA+l9UVlY+effdd8eqQHR5mywCFoEEILBXAeja5eXlb2VnZ8/i9TjSTAiu9Xi59I28r4f4d7Bq8A2W6kadfPLJ4yC9YuG9ZB+wAR0rRiKQ7IX+PwAAAP//6tH0GgAAAAZJREFUAwDLJ4DUkBHcigAAAABJRU5ErkJggg==;" parent="1" vertex="1">
                    <mxGeometry x="830" y="910" width="51.25" height="51.25" as="geometry"/>
                </mxCell>
                <mxCell id="18" value="" style="rounded=0;whiteSpace=wrap;html=1;" parent="1" vertex="1">
                    <mxGeometry x="900" y="910" width="40" height="56.5" as="geometry"/>
                </mxCell>
                <mxCell id="19" value="" style="rounded=0;whiteSpace=wrap;html=1;" parent="1" vertex="1">
                    <mxGeometry x="900" y="930" width="40" height="36.5" as="geometry"/>
                </mxCell>
                <mxCell id="35" style="edgeStyle=none;html=1;exitX=0.5;exitY=1;exitDx=0;exitDy=0;entryX=0.5;entryY=0;entryDx=0;entryDy=0;" edge="1" parent="1" source="20" target="36">
                    <mxGeometry relative="1" as="geometry">
                        <mxPoint x="1375.7692307692305" y="1020" as="targetPoint"/>
                    </mxGeometry>
                </mxCell>
                <mxCell id="20" value="レイヤー" style="rounded=0;whiteSpace=wrap;html=1;" parent="1" vertex="1">
                    <mxGeometry x="1350" y="930" width="50" height="36.5" as="geometry"/>
                </mxCell>
                <mxCell id="24" value="color" style="rounded=0;whiteSpace=wrap;html=1;fillColor=#99FFCC;" parent="1" vertex="1">
                    <mxGeometry x="990" y="920" width="50" height="46.5" as="geometry"/>
                </mxCell>
                <mxCell id="25" value="" style="shape=image;verticalLabelPosition=bottom;labelBackgroundColor=default;verticalAlign=top;aspect=fixed;imageAspect=0;image=data:image/png,iVBORw0KGgoAAAANSUhEUgAAAQAAAAEACAYAAABccqhmAAAQAElEQVR4Aeyd229c13XGZ0hZcsWLUcGA3dp10aJo0RuKQLYiC0XrBkHdSqpctOAf0DwYKVA7T4ViuglYgGJfkofIb35o0WcibqTKlCk7qhInduVGidvERdpcGtlpKj/YeaDEi0jOdH0zs3gdcs5l73PW3vsj9po9c3jOnr2/db7fnMvMOUMN/lGByBU4efLkg6dPn/67U6dOTcjfaOTDzTU8AiCXXJw5NAVgfunzTLvd/iupzy8tLQkDJggBEQOFAIAKjCgVUPM3m80JGSBM/6CAYIYQEDV6hQDoCcEqLgX6mF8HSAj0lEBFAEAFRlQK7GN+HSch0FOCAOgJwSoOBTKYXwdKCIgSBICIwBKHAjnMrwNOHgIEgK4KrINWoID5dbxJQkAHTwCoEqyDVaCE+XXMyUKAANBVgHWQCjgwv447SQgQAJp+1sEp4ND8OvbkIEAAaOpZB6WAB/Pr+KOHgA4UNQEAFRhBKeDR/KpDMhAgADTlrINQoALzqw5JQIAA0HSzNq9AheZXLaKHAAGgqWZtWoEazK96RAUBHZTWBIAqwdqsAjWaXzWJFgIEgKaYtUkFDJhfdYkSAgSAppe1OQUMmV+1iQ4CBICmlrUpBQyaX/UJFgI6gK01AbBVDT43oYBh86s+0UCAANCUsjahgCfz/1QG9/ftdvtbUt+VcFGigAAB4GJVYBtOFPBlfjH+eYnnW63Ws9LR6xKEgIiAQgBABUbtCvg0//r6+vm5ublbY2Njb8nzSRlschCQMfctBEBfWTixSgV8m39+fv5DjGd2dvYuIQAlNoMA2NSCz2pQoCrz69AIAVWiWxMAXR34WIMCVZtfh0gIqBKNBgGwqQWfVaiAJ/N/KAf7viD7+ed1s3+vIaUEgb00wHQCACowKlXAo/nPi/lfGGR+HSwhwC0AXRdYV6SAFfPrcFOHALcAdE1g7V0Ba+bXAacMAQJA1wLWXhWwan4ddKwQ0PHtVRMAeynD6c4U8GT+n8oBvxfy7PMPGlCKECAABq0V/H8pBTyaHwf8Bh7tz9v51CBAAORdQzh/ZgVCM78OLCUIEACaddZOFQjV/CpCDBDQsexXEwD7qcP/FVIgdPProFOAAAGg2WbtRIFYzK9ixA4BAkAzzbq0ArGZXwWJGQIEgGaZdSkFYjW/ihIaBLTfg2oCYJBC/P9ABWI3vwoQIwQIAM0u60IKpGJ+FSc2CBAAmlnWuRVIzfwqUEwQIAA0q6xzKeDJ/LhY53dardZr4+Pjt3N1qOKZLUMgjxQEQB61OG9HAU/mR9sH5eGjw8PDMwsLC8cmJibwWibZLDFAgACwuW6Z7ZVH8+uYYXpCoNGo5L4DBICudqwHKlCB+bUPhEBXCe8QIAC6QvNxgAIVml97Qgh0lcgFge4i2R8JgOxaJTtnDeZXrQmBrhLeIEAAdAXm4x4K1Gh+7REh0FXCCwQIgK64fOyjgAHza68Iga4SziFAAHSF5eMOBQyZX3tGCHSV2BMC3X/neyQA8umVxNyezI8v+dwUAVFLVagQAl3ZnEGAAOgKyseeAp7Mjwt4fr7Vaj0jb/OvEoSAiFCyOIEAAVAyCzEt7sn8eruuz42Ojs6LXs+12+03pSYERISSpTQECICSGYhlcY/mx9V7O7frwldnDx8+/A3ZEnhOdPu6xIpE0cLdga5yHQgsLS1NyN9od1L2RwIgu1bRzlmF+VU8QOCRRx75hmwFPNdsNr8m0wkBEaFkKQwBAqCk8qEvXqX5VasXX3xx9eGHH/7m2toatgRel+mEgIhQshSCAAFQUvWQF6/D/KoXICBbAm9jS0CmfVWCEBARSpbcECAASioe6uJ1ml81AwSOHTv29urqKrYErsn0ZYmiJdljAjsEywUBAmCHeim8tGB+1XlqamrtxIkT/947MHhNphMCIkLJkhkCBEBJpUNb3JL5VbspgYAcxf62HBP4tOwS/ItMJwREhJIlEwQIgJIqh7S4J/PjSz6l79J77dq1tZWVlXfW19exO/BlAQEhUH7lGggBAqC8yEG04NH8OM/v5C69gMD4+Ph3xPyAwKsi7JJE0ZLEMYEM4uwLAQIgg4KhzxKC+VXj2dnZ9ZGRkf8cHh4mBBqNMt+WVElR7wkBAgDyRBwhmV/TAAjce++935XXOCaArw9zS0DEKFn6QoAAKKmq5cVDNL/qCQg89thj/9XbEnhFphMCIkLJsgsCBEBJRa0uHrL5VVM5O9A6evTof+PAoBwXmJPpixJFS3THBAoKsQ0CBEBBFS0vFoP5VV9A4Pjx498bGhrCMYGyEGg3m82WbFW0tH3LtWwF3R0bG3tLADgp/bwu4fSYwOLi4l8QAKJqTCUm82teAIFHH330B2vd3w5ckulFtgRWxPxfb7VaZx966KF/g7mkHfMF/RRgvSNbQFels87uliRajEr8MQEgqsZSYjS/5gYQePzxx38or7ElcFHqPBCA+b+ysrJy9v333/8mvoIsywdRTp069bNi/k+JWXExlSMuOi1tASSzAsNPEAAuFDXQhifzY5PTzL36AAE5MPij1dVVbBJfENnvSAwqy7LCX5WV/aws9/aNGzdWBy1g5f/7mb9oH0ULNf/k3NzcLQKgqJKGlvNkfozQ3IEzQODEiRM35VMRVxbaFwKysuPMwRWp/3pkZOTb+KIRBhVCVGF+6EAAQIWAw6P5VRWTEJBPr3fv3r2L3YF/ko7u2hIQ0y8JJC7LwcOz+E6B7Euvy3xBlKrMDzEIAKgQaFRgflXGHASkY+3XXnvtPdm0x5bAS/J6KwQWxfz/LAcNz+I0Is3f3LbZL1ptFAJgQ4qwnlRofhXGJAQuX778v8vLy4DAF6WjgMAd+fT/kuzvf3p+fv6H2GWQ6UGUrJ/8eQYjWuxpfrRDAECFwKIG86tCJiFw9erVn4jhsTvwD9LRfzx48ODZK1eu/EieB3G+X/rZqMP8eF8CACoEFDWaX1UyCYFXX331Jy+//PKzcpbgmZdeeunH0tm2RBClLvNDHAIAKgQSBsyvSlmEAPrWDmmTHx2u0/x4fwIAKgQQhsyvalmFgPbPfF3E/IMGNWiff+fyBMBORQy+9mR+fMknqXv1WUqtBfNDDwIAKhgOT+bHZbw+v76+/qwMveyPTLglICLmKVbMjz4TAFDBaHgy/8a9+sbGxl4RCOBrtYRAReuAJfNjyAQAVDAYHs2Pa/ht3KtPIODq56bcEhiwHpU1f7/m8+7z72yDANipiIHXVZhfhzk7O+vyN+eEgAq7o7ZofnSRAIAKhqJK8+uwCQFVwk9t1fwYLQEAFYxEHebXoTuEAM4uXMexBexeoF19jxRry+ZHPggAqGAg6jS/Dh9mhWlhXplW5MAgzS/CaXFpfm2z7D6/tqM1AaBK1FhbML8OvwQEaH4VUeoQzC/dbBAAUKHGsGR+laEABGh+FU/qUMwvXSUAIEJd4cn8+JJP6Xv15YAAzb9lBQrJ/Og2twCgQg3h0fw4z+/kXn0ZIEDzb1l3fJlf3gIX8Oxcw0+eOy0EgFM5szUWgvl1JPtAgOZXkaQO0fzSbe4CQIQqIyTzqy59IICrzPBUX0+gUM2P7nMLACpUFCGaX6XZAYELOFWIU4aYrvOkWIdsfuSLAIAKFUTI5ld5YHaYXs5FT6LGa/1finUV5vetKwHgW2FpPwbzyzA6Baa/dOnSu6g7ExJ9iMH8SB0BABU8Rkzm9yhTUE3HYn6ITgBABU9B83sStsZmYzI/ZCQAoIKH8GR+nHozc68+D7KZbrJq81chBgHgQWVP5kdP+Xt7qFBDxGh+yEgAQAWH4dH82ktCQJWoqI7V/JCPAIAKjqIC82tPCQFVwnMds/khHQEAFRxEhebX3hICqoSnuk7zexrSrmYJgF2S5J9Qg/m1k4SAKuG4TsH8kIwAgAolokbza68JAVXCUZ2K+SEXAQAVCoYB82vPCQFVomSdkvkhFQEAFQqEIfNr7wkBVaJgbcX8BbtfaDECoIBsnsyPL/nwXn0F8uFikRTND90IAKiQIzyZH5fx4r36cuTB5aypmh8aEgBQIWN4Mj/v1ZdRfx+zpWx+6EkAQIUM4dH8uIYf79WXIQeuZ7FoftdjHNQeATBIIfl/FeaXt+kU/M4eF9vAFXdkQpGbc8hiG4UHBjek2P6E5u/qQQB0ddjzsUrzaycIAVXCT03zb+pKAGxqsetZHebXThACqoTbmubfricBsF2PjVd1ml87QQioEm5q6+Z3M8p8rRAAffSyYH7tFiGgSpSraf7++hEAO3SxZH7tGiGgShSraf69dSMAtmjjyfz4kk+V9+rbMqI9nyZzdoDm33Md6PyDAOjI0Gh4ND/O81d1r77eaDJV0UMgJPNnypiHmQgAETUE80s3O4W7Ax0ZBj7Q/AMl6syQPABCMn8nY/JACIgI+xSafx9xdvwraQCEaH7NHyGgSmyvaf7tegx6lSwAQja/JpUQUCW6dajm7/a+nsckARCD+XV1cQwBbTa4muYvlrLkABCT+TXljiCAC5Jcx4+Q8GMktKntW69p/uIZSgoAMZpfUw/DwrgwsEzL+ytCml9E09JsNm/L89lWqzU5Nzd3S55HW5IBgCfzwzhm7tVXEAIYAz/5exav2vy9t62tSgIAnsyPpJn7Mk1OCND8yGIvUjM/hh09ADyaH/ohQoUAzY/s9SJF82PoUQOgAvNDQ0RoEKD5kbVepGp+DD9aAFRofuiICAUCND+y1Ys6zd/rQq1VlACowfyaROsQeF06+jrOFOCMAY4XyOsgCk/1+UlTdACo0fyaIbMQWFtb+ySC5m80Uv/kb/T+ogKAAfP3ZG2YhMD8/Pz3EfzkT+c8v66Qe9XRAMCQ+VVrcxDQjoVSx7zZbyUHUQDAk/lxsIz36qtpTaX5qxE+eAB4Mj8u48V79VWzDu56F5p/lyTeJgQNAE/m5736vK1ugxum+Qdr5HKOYAHg0fy4hh/v1edyLcvYVirmzyhHJbMFCYAqzK/q44g5Tpvh3LlMy/srO1lkW+GBwW1ybL6g+Te1qPJZcACo0vyaCEJAlfBT0/x+dM3SalAAqMP8KqJDCODsQpA/v1UtXNY0v0s187cVDADqNL/K6gACNL+KKXWK5pdhmypBAMCC+TVrJSBA86uIUtP8IoKBYh4Alsyv+SoAAZpfxZOa5hcRjBTTAPBkfnzJp8p79dH8W1Z2mn+LGAaemgWAR/PjPH9V9+qj+bes5Kmbf4sUZp6aBEAI5tcM7rM7QPOrSFLT/CKCwWIOACGZX/PZBwK4rDRP9fUEovl7QhisTAEgRPNrTndA4AK+OYhvEGK6zpNiTfPbzroZAIRsfk0xzA7TN5vNSdR4rf9Lsab5N7Nu9ZkJAMRgfk0wTH/p0qV3Ueu0FGuaP4ys1w6AmMwfRsr995Lm96+xq3eoFQA0v6s02mmH5reTiyw9qQ0AnsyPU29m7tWXJQExzUPz98+m5am1AMCT+aEzfm9/7MCBA9OLnbFy1gAACR1JREFUi4uPTkxM4DWmMzwrQPN7FthT85UDwKP5VaJD7Xb7uLw4t7CwcPTpp5++R56zeFSA5vcoruemKwVABeZXuQ7Jk8eHh4fPvffee4SAiOGr0Py+lK2m3coAUKH5VTlA4MTQ0ND0zZs3P3L06FFuCagyjmqaf7CQ1ueoBAA1mF91BwR+F8cEHnjggd8hBFSW8jXNX15DCy14B0CN5ld9AYHfky2Bc0eOHCEEVJUSNc1fQjxji3oFgAHzq9w4MPj7hw4dmr7//vt/+4knnjig/2CdTwGaP59e1uf2BgBD5tccdCBwzz33TB8+fPi3CAGVJXtN82fXCnOGEF4A4Mn8+JJP2Xv13SunCP8AuwOjo6O/SQhkX0Vp/uxahTSncwB4Mj8u4+XqXn2AwMckSdgS+HVCQJQYUGj+AQIF/G+nAPBoflzG63NjY2Ov4Hf2onfZO/QAAh/HloC0+WsTExPD0iZLHwVo/j6iRDTJGQA8m79zDT/8xFYM+5YrCEgeP95qtc4tLi7+KiEgauwoNP8OQXK8DGVWJwCowvwqqEsIyPGAn2k2m38oMUMIqMLdmubv6hD7Y2kAVGl+TYZrCEi7T0pMLyws/Aq3BBoNml/WhkRKKQB4Mv+H8sn8BdnM72z275UH1xCQrYA/wjcGl5aWfnlqaqqULnv1OYTpNH8IWXLXx8Irukfz44DfC/Pz8x8OGqZjCBwW8JyUmHnzzTeThADNP2iNy/b/kOYqBAAL5leRXUJA2jwscVK2BM5dv379l1LaEqD5JfMJltwAsGR+zZcHCJyWU4TTb7zxxi/Ke+TWSJYJqtD8QaXLaWdzrdwWza9qeIDAnxw8eHBaxvwL8h5NiSgLzR9lWjMPKjMAxAgPSqszcrBsQupRCRcF3/ArfaNO7YhjCIzI8YCnZEtgRsb+iLxHdBCg+SWrjktozWUCgBjAl/lxwO98lgN+WYX1AYHh4eHpp5566mHpQzQQoPklmyyNgQAIyfyaTw8Q+FM5LTl9+vTpn5f3CB4CNL9kkaWjwL4ACNH8nVHJg0sIyK4Adnn+THZ/zp05c+bnpPlgC80fbOq8dHxPAIRsflXKNQQEBH8uWwLnnnzyySAhQPPrmuGnDrHVvgCIwfyaDJcQQJtyULBx6NCh4HYDaH5kj7FTgV0AiMn8OlhHELgjuwBfEgB89uLFi/+nbYdQ0/whZKmePm4DQIzmV1lLQuCOtHNxdXX1MxcuXPixPG9LBFFo/iDSVFsnNwAQs/lV3YIQWJTlL6+trX32+PHj78pzmr/RmG21WpNzc3O3RA+WRqMRqggdAKRgfk1QHgjIJv+SHPi7gk/+8fHx/5mammppO9ZrfvJbz5CN/g2lZH6VPCMElmX+LwsEPnPfffd9T5ZZl9dBFJo/iDSZ6OSQrOB/KzEhvcG5bqlKF3y91/k3/Er3akcDYui7+1xebEVm/4rE39y5c+e7Mi/N3+Bmv6wP0ZUhOa/9hozqtoSrMiJA+ZjEb0wYvz23GLsfBGD+r8lm//O3b99+59q1a2uuhPHdDj/5fSvcv/2Qpw4tLy9/UfZzJ2UQrg7oHJS2Pjo8PDyzsLBwLDAIvC59/6ro8fwHH3zwHzR/Ex8MPOAnK0WsZUhW8tuLi4uzstInDwE50v9JObr9lyMjI9+6cePGaihJ5yd/KJmy18/OWQBCQHZwZ2fvzs/Pf//y5cs/wK6BvVT17xHN318XTs2mQAcAmJUQgAphBc1ff75C78EGADAQQgAqhBE0fxh5st7LbQBAZwkBqGA7aH7b+Qmpd7sAgM4TAlDBZtD8NvMSaq/6AgCDIQSggq2g+W3lI4be7AkADI4QgAo2gua3kYfYerEvADBYQgAq1Bs0f736x/zuAwGAwRMCUKGeoPnr0T2Vd80EAIhBCECFaoPmr1bvPO8Wy7yZAYABEwJQoZqg+avROfV3yQUAiEUIQAW/QfP71ZetbyqQGwBYlBCACn6C5vejK1vtr0AhAKApQgAquA2a362evlqLqd3CAIAIhABUcBM0vxsd2Uo+BUoBAG9FCECFckHzl9OPSxdXoDQA8NaEAFQoFjR/Md24lBsFnAAAXSEEoEK+oPnz6WVh7tj64AwAEIYQgArZgubPphPn8quAUwCgq4QAVNg/aP799eF/q1PAOQDQdUIAKvQPmr+/LpxajwJeAIChEAJQYXvQ/Nv1CO1VjP31BgCIRQhAhW7Q/F0d+GhLAa8AwFAJgUaD5seawLCogHcAYNApQ4DmxxrAsKpAJQDA4FOEAM2PzMcRsY6iMgBAwJQgQPMj4wzrClQKAIiRAgRofmSaEYIClQMAosQMAZofGWaEokAtAIA4MUKA5kdm44uYR1QbACBqTBCg+ZFRRmgK1AoAiBUDBGh+ZJIRogK1AwCihQwBmh8ZZISqgAkAQLwQIUDzI3NxR+yjMwMACB0SBGh+ZIwRugKmAAAxQ4AAzY9MMWJQwBwAIKplCND8yBAjFgVMAgDiWoQAzY/MpBMpjNQsACC+JQjQ/MgIIzYFTAMAYluAAM2PTDBiVMA8ACB6nRCg+ZEBRqwKBAEAiF8HBGh+KJ9mpDLqYACAhFQJAZofijNiVyAoACAZVUDgzJkzD7Tb7U81m81n5D2PSJQu0tZtaWS21WpNzs3N3ZLnLFSgdgWCAwAU8wmBAwcOnF9fX58Rw9L8EJsRtQJBAgAZ8QUB+eT/iLT/CQl+8osIKZaUxhwsAJAkTxBA005CtiK42e9ESTbiS4GgAQBRrEKA5kd2GNYVCB4AENgaBGh+ZIURggJRAABCW4EAzY9shBup9TwaACBxdUOA5kcWGCEpEBUAIHxdEKD5oT4jNAWiAwASUDUEaH6ozghRgSgBgERUBQGaH2rHESmOIloAIJm+IUDzQ2VGyApEDQAkxhcEaH6oywhdgegBgAS5hgDND1UZMSiQBACQKFcQoPmhZnyR6oiSAQASXBYCND9UZMSkQFIAQOKKQoDmh3qM2BRIDgBIYF4I0PxQjRGjAkkCAInMCgGaH2rFHSmPLlkAIOmDIEDzQyVGzAokDQAkdi8I0PxQhxG7AskDAAneCQGaH6owUlCAAOhlWSEgL5+VeIFX7xUVEiipD/H/AQAA//9eKCXnAAAABklEQVQDANNGYiXqW1EJAAAAAElFTkSuQmCC;" parent="1" vertex="1">
                    <mxGeometry x="620" y="900" width="63.5" height="63.5" as="geometry"/>
                </mxCell>
                <mxCell id="27" value="" style="rounded=0;whiteSpace=wrap;html=1;" parent="1" vertex="1">
                    <mxGeometry x="1460" y="840" width="80" height="125.63" as="geometry"/>
                </mxCell>
                <mxCell id="26" value="&lt;font style=&quot;font-size: 24px;&quot;&gt;三&lt;/font&gt;" style="text;html=1;align=center;verticalAlign=middle;resizable=0;points=[];autosize=1;strokeColor=none;fillColor=none;" parent="1" vertex="1">
                    <mxGeometry x="1475" y="920" width="50" height="40" as="geometry"/>
                </mxCell>
                <mxCell id="28" value="&lt;div&gt;操作説明&lt;/div&gt;設定&lt;div&gt;画像に保存&lt;/div&gt;&lt;div&gt;ホームに戻る&lt;/div&gt;&lt;div&gt;&lt;br&gt;&lt;/div&gt;" style="text;html=1;align=center;verticalAlign=middle;resizable=0;points=[];autosize=1;strokeColor=none;fillColor=none;" parent="1" vertex="1">
                    <mxGeometry x="1450" y="860" width="100" height="90" as="geometry"/>
                </mxCell>
                <mxCell id="29" value="&lt;font color=&quot;#ffffff&quot; style=&quot;font-size: 24px;&quot;&gt;ー&lt;/font&gt;" style="ellipse;whiteSpace=wrap;html=1;aspect=fixed;fillColor=#000000;" parent="1" vertex="1">
                    <mxGeometry x="810" y="870" width="30" height="30" as="geometry"/>
                </mxCell>
                <mxCell id="30" value="&lt;font color=&quot;#ffffff&quot; style=&quot;font-size: 24px;&quot;&gt;＋&lt;/font&gt;" style="ellipse;whiteSpace=wrap;html=1;aspect=fixed;fillColor=#000000;" parent="1" vertex="1">
                    <mxGeometry x="1110" y="870" width="30" height="30" as="geometry"/>
                </mxCell>
                <mxCell id="31" value="" style="ellipse;whiteSpace=wrap;html=1;" parent="1" vertex="1">
                    <mxGeometry x="840" y="870" width="270" height="30" as="geometry"/>
                </mxCell>
                <mxCell id="33" value="" style="shape=image;verticalLabelPosition=bottom;labelBackgroundColor=default;verticalAlign=top;aspect=fixed;imageAspect=0;image=data:image/png,iVBORw0KGgoAAAANSUhEUgAAAQAAAAEACAYAAABccqhmAAAQAElEQVR4AeydCZQW1ZXH6X0VARHBLTExZpxzTMYgIGZCcGvshcY2tksSjXoUjQuKOzjBNi64RaO44pKoUSOdoTvQgCDBTuIS46DROPFEiU5EWoNRBJrG3uf3h0bRgL1V1XtV3+XcS31d31fv3ve/7/7r1Xv1qtIH2L9EI1BcXJxTUlIyBp2G3llaWjoXfRpdgX7YpfqsfXP1G/TSsrKy0To20eBY5QYYASSsEVRVVWWSuF8msb9PEt+Tnp7+alpa2lPoNegZVLcCPQj9Mrpjl+qz9lXoN+jMzs7OZ3SsylBZKnP8+PGZ/N4kQQgYASQkmCRnLsk6/vnnn7+bxH2Baj1EEp/Kdi+0L4mbwXF7dZXxEGW+WFBQcLdsyBbfmSQAASOAmAdx5MiR+Zydi/Pz8+8nWedTnVPQgWjQsgMFquz5EMH9EydOLEbz2WcSUwTkthGAUIihkvQ5dM0PHj58+AOcnavpth9PNQrRUAWSkY3jOzo6qtEH5IP1CEKFPNTCjQBChTecwsvLy3cg4U8iGe/HwlFoARq1yKZs30fv4yQIKYxeR9R1Sjl7RgAxC3lFRcVObW1t0yGAa9Ev4r7LGMr2XvihAcZp8g1/TGKEgAIYI3dT19XJkydnFRUVjWxubr6DhDsHJAahvshg+STf5CPjElm+OGZ+bBuBLXuNALYg4fGW7nVOQ0PDuKysrFtJtCNxVd1vNl5JgXyTjzvvvPM4+eyVd+bMNhEwAtgmLP7sHDt2bF5GRkYR1/s34tVoNBv1VbLxczT+/gQtqqyszPPVUfNrMwJGAJtx8PJ/TbMNHTp0Ikml5N8PJ/syn89h0Qm9APm4n3xubGwsnzhxok0VRgd/ry0ZAfQasmgOYGqtsL29/RhUyf8VrOrGHDaxELWrrzA9eSP+H0tPQFOHsXA8FZzcuo4K1NZ/22cPENA0X0FBwYm4ch1n1D3YpqFxE/m8O05fu379+hMZE7BpQsDwTYwAPIvIYYcdtiPTfKfh1hUk/zC2sRbVgfGAKvRUegJaexDr+iTNeSMAjyJaWlo6OCcn5yySZjpuDUWTIjszJjB948aNZ6qOSalUEuphBOBJFCdMmDAEV6aiF6I7oUmTnSCBi6jU1K668tEkagQ+a88I4LOIOPibkfKhzJ9fimnd4DOYbVJFdTtHdVWdk1rJONXLCMBxtCoqKoZ1dHTM4Ox4Oq74dHcf7oQig1TXDurMwODOoViwQnuMgBFAj6EK/ofl5eW7tLS0XEXJJ6GpNEquup7MNOFVwoC6mzhCwAjAEfBcB4/gLHgD5r+Laq09m5QS3RvwPWEgLFKq5o4quy2zRgDbQiXEfVVVVelHHnnkl5kWm0VX+DuY8vG+ftyKRFT3o4UFJLC3sInEqhn5GAEjgI+hCP/D+PHjM59++umv0e2/jam+Uiym/G2ykGCesMjMzJz13HPPfV0YgYtJRAgYAUQEdGVlZXZBQcHY7OzsW2jwh2A2FzXZjICwOJiewM3CSFht3m3/h42AEUDYCFM+Z7XcDRs2KOlv4s+xqPMVfZx5WyGiN6X6jE+uJYfxAD2Z+KbGxsZDhZlrh5Jkf3t1MQLYHjIB7R85cmQ+Z7USEk2LevanWJcPy2jH/uv4cgE9kX1JtH2k7e3t/659fPcaqt+wiV7wQdjsz/ZGYTbRVhKGHgQjgBAh5ixWOHz4cD03T8m/L6acregjqRrRR+hmH7vrrrvOqq2t/Vt9fX2bdPHixSu0j++O02/wsxF1JRn48G8Yv5EewVFFRUUaKORPkzAQMAIIA1XK5Dq2kLOYpvg01adn87vEej3d/AezsrIunDdv3ouzZ89uxcVPifbpO/2G+fkH+XId6kqElTC7EX++V15enorTpJFgL6AjMZRKRoqLiwdyza9n6Osmn+GO676WhL6Xs2lVTU3N6u580W/a2tqq+N196FrUpewCcV2JPycLU5eOxNn25/luBPB56PThO+b4B9GVPoNu7I843PWtrmvw406m2K5etGjRe/jTI9FvGSO4WsdywIeoM8GHYeiPhKmwdeZIQg0bAQQYWC11ZY7/XM5al1Cs6+W8Sv5bW1tbb+Cs/j7+9Ep0DPW4nuS7hQM/QF3KUHy5hLpMmbB51aRLXxJl2wggoHBWVFRsWu5KwpxHkVray8aZvI8fN3Dm/ykDfH1O3gULFqwh8XTfggYxe00iAddemJ5HT+BCYR1w2SlbnBFAAKHn+nRnzvyXkXRnUpzrFX3v4cc1eXl5dzDS3+/uu0jgo48+ugMiuIa6/RN1KXr/wJmMCVwmzF06Ehfb3flpBNAdQt18z9loGGelK/jZqeiOqDMhSVejVzCvf291dXVgA3hLly5dS2/iHgYTL4dcuh1IDBmAHRnQPBVfrhD2IdtKfPFGAP0IcUlJyfDm5ubrSLoTKMblVFUnidmATmPq8QEG8QKfwmOKcD3/HqSu06hrA9qJuhK9G/EEel3XKQaunEiCXSOAPkbx8MMP35WEuxk9hiK0tJWNE+nA6hucFS9kkOwxzvyh3cRTX1/fKBuQgB7t9QZ2ZZtN9IIPwvwY8L+JgcER0XuQDItGAH2IY1lZ2W45OTm3cegk1OWKPt22+xeS4CLO/LVLlizZgD+himysWbOmRjYx9BdUPrBxIsK+gkuwOxQTJx54bLQnrhkB9ASlrt9ovXp5efne/HkfZ6ASts5efYV9LeZ5ge1FjY2Nizjzb8SfSOTZZ5/dKJuyDRG8gNF/ubOQfVFJLj4U48t99AQUG2vTvUDewOohWJWVlRlar84A2/00toM5LAd1Jc00+j+gF+HLk3TNP4raEdmUbfmA7T+gLagrUSwOZqDyfgj66+PHj9fryVz5Eiu7RgA9CBfJn93U1HQQI8/38nPXy3mV/PX4MbWhoeEZBvya+exEZHvEiBHPQATnQwRP4kTkRITNLaIl1mMZC7mXy6GxitmWL2y7fQSMALaPzaZvOJvkbty48TD+mI3+B+rs7EKSbSTZFtHIp4waNerF5cuXu+x6A8WAAVpENHr06BeysrKm4Nvj7IzsUgRbn5VMfFCMZitmit1nf5Aqf/e0nkYAn4OU1qMXFhZOolHdyc++irrESwN8NVyCnLlw4cLXqqqqnI3Ag8OnRL7U1NS8Jt/4ohZtQl2JYvRVxSwvL2+SYujKkTjYFVhx8DNyHzl7FHKmPY6G9FOM74nqZZdsohfO/FrLPwd/Lli8ePE70XvQM4vyDbzORx/jiNCmIym7O1Gs9uSSTbcxH8flgKYMuzsmJb83AthG2IuLiwfm5+drOe+1fO16Oe96Ev8XdLEv5cz/Lv54LfKRKdJLIa1f4Oh61KXs0tbWNlNLsxVTl474atsI4DOR0Yo+5pX1gs4ZfOV6Oe9aEkmzDjPoYru+BRc4eibylcsBve3ofo4I7JZkyuq1gJ+WE89QTFNlOXFvQDIC2AotuopDaDDqwupOt522+srFRy3kuYsz/5WMtvd4Lb8LR7dlUz6TdHogyl18r7qwcSabVmq2tLRcMMGWE38qCEYAXXAwWDSUqb5pXL+ezS69xJKNM1mD5Vvpvl7P2dT1Mlxc6ZvMnz//n6oDR9+Kqk5snIlWEp6dmZk5TbF25oVnho0ACIhWlXGdfTkfJ6Oul/Mq4bX+vl9r+amHF8LAoJ5HoIFU1Ul1c+mXYjuZWM9gTMD15Z1LHD62nfIEUP7JCzp/ACp6aSUbZ7JpLT8DkLdrHb4zLwI2rLo0NzffTuLNpGjXzxQYyGXeyVyeXK3Y40+ipLeVSWkC4HpwBINVOjPp6b0ul/MO4NIjlLX8vW0QYf1ezxSg7HtIvirU6YAmWBei31Xs1QbwK2UlZQngkEMO2Y3rQV2bun5BZyet7x2SYnpBQUEoa/kp3wthYHBdY2PjAyTfdNT1/QwFYP4dtQF6Art6AZADJ1KSALR0lG62RqfLwNzZij5s626+N9men56e/mh1dbXLm2dwI3yp3/xMgV+SfOdj7W+oMGATvUBCiv1ELk3uZkxg9+g9cG8x5QigqKhoDwL/c7QI+PVSSjZOROvotZb/nA0bNtQyYu7y9tlIAdAzBVRnSGAKhl0/UyCHtnA4YwI/mzRp0h74E1vpi+OpRABpnPm/wrz6LwHq26hWj7GJXmhwrajW0Z+Zl5e3lLOiy1V00QOARdVZdYcEftiFhcuFTTn0Ar7d2tr6S7UR3NOtxGySLylBAJWVlRkM9uxPQ5tDSMegegklGyfSQqN/mi7/aVyGPEO33+U6eicAbDGqukMCzzIYdxqxeYb9zrAgJlmo2sYcSGB/tRn8SbwkngAIZDbdzW8y2PMoAf4aEXX2gk5sN9PQf0Pyn1JXV/cyCaDLAHanrgiDxYsXv0wX/GTi8xuQcPZ8A2xnEJ+voY+qzUyePNnliQJ3wpdEEwADOzlNTU2H07AeBsp9CKyz+uKD1skvJPlP43pfA38a/cctExDoFCbE6jQ+L0SFFRsnojayD/F6eNWqVUXjx493OU7UYwD6+kNVtq/Hen3cyJEj80m2cpycjboe4W2CfGrb2trO4sy/Cn9MtoHAsmXLVrW0tOhW7F/ztetB0d0hgdlMzU7knx4+ikvJk0QSAKxduMsuuxxLuDTP73SOl0akqb05EMD5dHVdz30Did/yxBNPNIDVVAblqvFU2LFxI/ihtnMr22O5lEzkMwUSRwB0+wcWFhaexNnfi7X8NJ6Hub6NxVp+N2n2r1b1TIHc3NyL+eYR1PUzBYZDRtc2NjaepLaFP4mSRBGA1nuT+JpWqiLxhjmO1DrO/j+j8fxo3rx5/3DsS+zM19TUrGaW5L/A0ItnCtCuLkd/qDbmG5j98ScxBMA03xDmcXV32SUA4nwtPw33LjSWa/nBzwthhkCLo64Cx7txyPUzBYbiwyVqY2prfE6EJIIA6JrtTDf7Ms76urPMh7X8s2go1zGy7XrlW+wbqTDMy8u7DhKYRWWcP1MAH6ZkZWVNZ2BQhMCf8ZbYE4DW8tM1u5IGchq6o+NwvA8JXU8DuYkBP62Dd+xOMszTE/gAXG9Gr6dGrp8psCN+TG5vb7+qvLx8F/yJtcSaAOiKjWDa6CdE4PvoDqgzoVGs5npfYw931NbWuu6uOsMhLMN6pgAY3wHJO19OTB31duLvQwI3qg3ytzPpr+HYEkDXct7bAcD1cl5cGPAuDfPijRs3/lxLXrXDNHgEhC2j8T+HaDXO827wFnpV4pblxLeXlZXt1qsjPfpxLAmAa/7duS7Ua7qcvqBTcSTxV3FmOpsR6zn19fVO563lT9JVGK9Zs+YxYU5dnd5UhQ9aTlzC9j6tMsWf2EnsCAC23ZMBv18A+qGgrZdCsnEiWsf+Ot3AU/CljutUl7evOgHAlVG9nViY0xM4BQJ+HVUsXLmj5cSHZGZmPqS26cqJvtqNFQEcccQRXyTouqvumwTd5UKNduy/gi8nrl69+km6pi4XsPQ19rE+TpiPGTNmGQR8yo9W4AAAEABJREFUInF4hco4W1hFW9BKwm9CSnPURvElEgnCSFwIIK2kpGQfRvt/DdijqHgm6kQIchs+PE/DO54G+Mfly5e7XMfuBANfjFZVVbUpBsTjOPR5/GpDXYna5Ch6Ar9mZmofnIjFMwW8J4DKrrX8BHgBuh/AuvRZa/l/jw/Hcgb6Cw2wg88mDhFQDJgheBUXtPZDsXH2TAF8SOcEsV9ra+sCLgdi8UwBl8kEXp8vWo/d3Nystfxz+eXeqEtWVTd/GcH9QV1d3Vv4YuIRAooJlwIn4tIyVLFi40TSIIG90blxeKaAtwTASH/OypUrD6OrrbX8X3ASyk+MfkRAF9EDOXXJkiUrP9ltn3xCgF7Z24oRugi/XA/KfgE/HlYbVlvGn0AlqMK8JICxY8fmMdI/kWt+TfU5X8sP2LVc29lafoDwXegJrKLXeBbJ58UzBWjH96ATuZTVlKF38HlHAFrLP2TIkGM44+reb63HdgYajUjz+tX4MnXevHkNzhwxw71CQM8U4HJgKgfpmQIb2DoT2s5u6KympqZjioqKCpw5sh3DXhFAeXn5Dvw7kcTTPd/Dt+NzVLvXE7iHsrOzL9b69KiMmp1gEFDMFDva0oOU6PyZArSl6+lFevdMAW8IQOus29razoC5rwAs12v5P6Th3MUlyAytS6cBmcQQAcWOOM5A9RIYp+sz8GEYqnUMp6ut9wfOII/1ggBKS0sHk/znAdClVM71Mkut4tPKs5laioo/JjFGQDHkhDKTKtyMKrZsnMlQ2vg0tfUJEyYMcebFVoadE0DXumq9K+5c/HINynuc9a/Kz8+/hbll12vPgcMkCAQUSwYGb4EIrqK891CXMhg/zuVyYFpX23fpywCnBFBRUTEMMH4MAqejg1CX8g/Y+TL03urq6rUuHTHbwSOgtxMXFBTo7cSXUbrrR7SprZ/O5e6PlQP440ycEUBJSclwWPkGCEA3bzhdy0/Sa4RflyAPM9rvesDIWWNIumGIvZFYP0yb0wyB6yc065kCJygHlAs9xT7o3zkhAK3lp6t9G8GopEKup0ZW4cfpGzZsqOV60fWz6IHDJEwEFGMIYC7tbzJ23kadCX4U4kclehszYE6mvCMnALo8O3GNfTaV13Je1zdHvAX43xsxYsTi+vr6lHtBp7OW79jwokWLmnNzc5dA/CfgitPbusmDPPTQ9vb2KcoN/IlUIiWAysrKwtbW1qOo8MnUUtdBbJxIBz78lQZQQUN4avbs2baiz0kY3BnlcqAlLy9Pi4eOoh38FU9cvqpNuXCScoOeQKSXw5ERACOe+U1NTWUkXhVgu3yYYgcBf4lR2LK6uroXaQjO1pGDg4lDBBR7ZghewIWJtMs/sXXZFpQTVS0tLaXKFXz5FwljRyQEoMUQdHHGkXh6eq+zO/wIstaLP8c87FEM9q0AUJesj3kTDxDo5ETwOiPy6pk6faYA7XM4J6YrlSvKmSiwiYIA0qjUriT/eVRwDzQKm9vCTmv5n8KP4x5//PH/29YPbF/qIqA2wXiQninwFCi4eqaAniewB/an4oseNBr68vfQk7G0tHQQ7Ho8lToAdfUMv2YSfwl+nADbOx30AQMTTxFQ21Abwb0nUFeDwjm01ZHYP065wzZUCZUA9EAPvN+XColZNdDBn5GLpvZqYNTTGf11Ou0Tec3NYK8RUBvhOnwybbaWg9V22EQug7CvnNl35MiRm559GZYHoRLAypUrlfSVdPv1QI+MsCqxvXIBUTd+PJKRkXEe1/y62Wd7P7X9hsDHCGg5MScMXbI+wk4tCWcTqWQoZ/ChctiwYcqh0IyHRgB6qAcV+Bae62YfF6/sWgsB3MuAynSS3/Wtn8BgEicE1GZIwun4rIfSuLg1XK8g001C32L6PLT7ZUIjgIEDB4q5KgBQWzaRyhqCN4uunL2dN1LYk2WMy4H38vPzNXOlh9NEvjiMNqzcqVi3bp22oYAbCgHAWNmc/ffF43Fo1Lf66o2812VnZ//EXtAJ+ib9QqC6uvoDZrH0/snrKCjqF5Mqd8Ypl5RT2A9cQiGApqamAq67D8LbQjQygTFXo1WM5N5ZW1vr9AEQkVXaDIWOgNoS7fkOElEPF1kdusGtDNCeC7mUPUg5tdXuwD6GQgAkYAGOH4iX+WhU8i4Buqitrc1e0BkV4ilkhzGB9fzT48UuotrvopEIya+XkB6onArDYOAE0NVV0ZtR9BKP3DCc/myZgKSXRJ6Vl5dXvWTJEqcPgfysb/Z3chCor69vfP/99/Wg0bOoldocm9BF984ol/bpyq1ADQZOAOqqkJC69o+k+4+tlZz5T4YhF3C95vpZ8IEGxwrzDwG9mFRtDdVLYVeG7WFX+Xp2wDgGAwPPqcAJgITMR/fH8Si6/7ql91iAeZIRW5dvg6G6JqmCgNramDFjlnHi0c06f4+g3nnKqaysrMCnAwMnAMDIwFnNYYZ9488bjDOUH3DAAc/RNdMiH0ybGALRIFBVVdWmtkcbnIjFN9DQBBu6MUj30gSeU4ETAMkvJweyDbzsrRB+ky7Y0QUFBfaCzq1AsY/RIgAJdIwePfp/1Rax/CYaipBLGfQ2lFPKrUBtBJ2kae3t7Vkw1kC8DNxZypTo4Z0z6Q6t4Jrf5fpt+WKa4giIBAoLC18HhmvRQO84pbwtolWCA8mrzC07gtoGSgCMUqo8ORpK8gOAuvp/g3GXaFomKBCsHEOgPwhwImqkbS6mDD1jIqynS6kXsCM5FmhuKWHxOzDJIDl3pMsSdLmbHKRcrdP+O70MbTfts/8MAR8Q6GqTWmoeCgHQ9tOVW9TVXwJ4++23M/gXymAFFZc0w7Sv8cFG/AHBxB8EMjMzP+pqm2E9RyCUgcBQztT+hMU8MQTiiUBUXhsBRIW02TEEPETACMDDoJhLhkBUCBgBRIW02TEEPETACMDDoJhLqY1AlLU3AogSbbNlCHiGgBGAZwExdwyBKBEwAogSbbNlCHiGgBGAZwExd1IbgahrbwQQNeJmzxDwCAEjAI+CYa4YAlEjYAQQNeJmzxDwCAEjAI+CYa6kNgIuam8E4AJ1s2kIeIKAEYAngTA3DAEXCBgBuEDdbBoCniBgBOBJIMyN1EbAVe2NAFwhb3YNAQ8QMALwIAjmgiHgCgEjAFfIm11DwAMEjAA8CIK5kNoIuKy9EYBL9M22IeAYASMAxwEw84aASwSMAFyib7YNAccIGAE4DoCZT20EXNfeCMB1BMy+IeAQASMAh+CbaUPANQJGAK4jYPYNAYcIGAE4BN9MpzYCPtTeCMCHKJgPhoAjBIwAHAFvZg0BHxAwAvAhCuaDIeAIASMAR8Cb2dRGwJfaGwH4EgnzwxBwgIARgAPQzaQh4AsCRgC+RML8MAQcIGAE4AB0M5naCPhUeyMAn6JhvhgCESNgBBAx4GbOEPAJASMAn6JhvhgCESNgBBAx4GYutRHwrfZGAL5FxPwxBCJEwAggQrDNlCHgGwJGAL5FxPwxBCJEwAggQrDNVGoj4GPtjQB8jIr5ZAhEhIARQERAmxlDwEcEjAB8jIr5ZAhEhIARQERAm5nURsDX2hsB+BoZ88sQiAABI4AIQDYThoCvCBgB+BoZ88sQiAABI4AIQDYTqY2Az7U3AvA5OuabIRAyAkYAIQNsxRsCPiNgBOBzdMw3QyBkBIwAQgbYik9tBHyvvRGA7xEy/wyBEBEwAggRXCvaEPAdASMA3yNk/hkCISJgBBAiuFZ0aiMQh9obAcQhSuajIRASAkYAIQFrxRoCcUDACCAOUTIfDYGQEDACCAlYKza1EYhL7Y0A4hIp89MQCAEBI4AQQLUiDYG4IGAEEJdImZ+GQAgIGAGEAKoVmdoIxKn2RgBxipb5aggEjIARQMCAWnGGQJwQMAKIU7TMV0MgYASMAAIG1IpLbQTiVnsjgLhFzPw1BAJEwAggQDCtKEMgbggYAcQtYuavIRAgAkYAAYIZRFGlpaWDi4uLLykpKVnI5yeToGVlZQvRiydMmDAkCIx8LSOOfhkBeBi1tLS0PHQMro1PgnZ2dh7Y0dGRT11MPEPACMCzgJg7hkCUCBgBRIm22TIEPEPACMCzgJg78UQgrl4bAcQ1cua3IRAAAkYAAYBoRRgCcUXACCCukTO/DYEAEDACCABEKyK1EYhz7Y0A4hw9890Q6CcCRgD9BNAONwTijIARQJyjZ74bAv1EwAignwDa4amNQNxrbwQQ9wia/4ZAPxAwAugHeHaoIRB3BIwA4h5B898Q6AcCRgD9AM8OTW0EklB7I4AkRNHqYAj0EQEjgD4CZ4cZAklAwAggCVG0OhgCfUTACKCPwNlhqY1AUmpvBJCUSFo9DIE+IGAE0AfQ7BBDICkIGAEkJZJWD0OgDwgYAfQBNDsktRFIUu2NAJIUTauLIdBLBIwAegmY/dwQSBICRgBJiqbVxRDoJQJGAL0EzH6e2ggkrfZGAEmLqNXHEOgFAkYAvQDLfmoIJA0BI4CkRdTqYwj0AgEjgF6AZT9NbQSSWHsjgCRG1epkCPQQASOAHgJlPzMEkoiAEUASo2p1MgR6iIARQA+Bsp+lNgJJrb0RQFIja/UyBHqAgBFAD0CynxgCSUXACCCpkbV6GQI9QMAIoAcg2U9SG4Ek194IIMnRtboZAt0gYATQDUD2tSGQZASMAJIcXaubIdANAkYA3QBkX6c2AkmvvRFA0iNs9TMEPgcBI4DPAce+MgSSjkCgBDBo0KCOtLS0jwCtEw1DMtLT0wejGWEUbmUaAn1FoKOjI5NjB6GhtM1O/im3GhsbO7ARmARKAGPGjGnHzw/xrh0NQ7IBei8KzkFNDIFQEehN4RkZGdn8/ktoWG2znX9rV69e7S8BUHk5t45taATA2X8fmPBLkydPzsKOiSHgHAG1RU58X+pqmyKCMHxq5+T34fLlywPNrUB7AFVVVSKAJhJ0I6rPQQMhf/ek7HMbGhqGBV24lWcI9AWBFStWqC2eBwnsiaqN9qWYzztGudSUmZm5kR/pM5tgJHBnAWDTZYC2wbj46VIoN489B7M9s6KiYic+mxgCzhBQG8zNzT0LBw5G1TbZBCu0dSX9OraBnv3lZSgEQMFrUTnNJhQZTC9gSktLy6zi4uJDysvLd8BKGmpiCASCQDeFpKnNlZWVHao2SFs8h98PRkMRylfifxgLAgCBZhx9na1mA9iEI9gopOTjue5ayuDIOyUlJS+Vlpb+Fn0yzkqd5qJHoKGcTSg3cqEB56JH0IX97zjHpsv336qttbW1vUsbfAIwj0fVFtmEJs3gt4LSm9FAJfAeAKOUG/DwGVRbNqGLzvwFALQflsah4+Ou1GUMdUgMAZAoqovqFPvYEJdxxGc/NJ/PantswhVsNTIA+DQEGnhOBU4AjFJqoOJPOP0BGuZlQLioW+mGgB8IdECgH9DTfXH+/PnKrUC9CpwA8K4zJydH1yvP4HjgjEX5JoZAqAh4Vrhy6GkIQDbmv/8AAAN7SURBVNPrnUH7FgYBDOCafCMOv0QPIHDGChoAK88Q8BkBTqLKoZdbW1u1DdzVUAjgG9/4hgjgT13OB+60FWgIpAoCOoly/f8SY2vxIYCqqqo2nH6NIP0KEtCUIB9NDAFDoJcIrIUAfsXg318ZW2vt5bE9+nkoPQBZHjFihBJ/LhV4i781j8nGxBDwGwGPvOvAl7c4gc5taGhQLvFn8BIaAcyePVuM9Sou/woNrQKUbWIIJBEBLapT7rwa1tlfoIVGACp81KhRSvxqWOwV/m5BTQwBQ6B7BFrImT8z8DenK4e6P6KPvwiVABgL6Ghubm7AN93dJjLgo4khYAh0g8BaZtFqGEd7RznUzW/79XWoBCDPli5dujYnJ+dRPlejmstkY2II+IeAJx6t5+xf3dLS8qhyJ2yfQicAVaCmpmY1g4HXULHf8XeoawQo38QQiCsCWkfzW/Jk5pIlS1ZHUYlICEAVqaur06XABVROC4U0wqndpoaAIbAZAeXEa0z5Xbho0aJVm3eF/39kBEBVOnffffc3MzIytHTybf42MQQMgU8QWMnJ8ezhw4e/wa7Ab/mlzG1KlAQwQFODbW1tf6CieoCCkcA2Q2I7XSDg2OYqcuLspqamPypHovQlUgJQxejeNI8ePXohFS7h79+jNj0ICCYpiYCm+35HLhQXFBQsqq+vj3x8LHICUJg1tbFw4cI/Z2dnH83g4D3ss9kBQDBJKQQ02n8vPeJK5UJ1dbWTu2WdEMCWMGt2ICsr63IY8Hb26c4nNiaGQOIRWEObv43p8RlRjfZvD1GnBCCnIIH3ufa5Jj09/XT+1iOWQln1RNkmhsA2EYhqJ71dte0nSP4zOPNfrbYfle3t2XFOAHKMa5/G+fPnz+no6DgacKaiz7PfxgYAwSQRCKgt/w/teyp6NF3+OZz59aAP55XzggC2oMAA4ToGCO/Jzc2dBFtezv4/QwZaVMRHE0MgXgio7aKv0JarmP6epLatNu5TLbwiAAGjAcK5c+e+U1dXdy2XBQeyrxydhb4KmEYGAGHiLwJqo+ireKg2W07ij6Etz5w3b16D2jb7vRLvCGBrdLgsaKK79PiCBQum0HXaH0L4T8Cdht6OPoYuQ1/mmAa2emRyZDdQYNMkAQj0oQpqY5quU5t7mXanNqi2qIHsS7va6P5qs2q7asN9sBHZIf8PAAD//93czGwAAAAGSURBVAMAILp01419RBMAAAAASUVORK5CYII=;" parent="1" vertex="1">
                    <mxGeometry x="620" y="476.5" width="73.5" height="73.5" as="geometry"/>
                </mxCell>
                <mxCell id="34" value="&lt;font style=&quot;font-size: 18px;&quot;&gt;（←Home（login).drawioへ）&lt;/font&gt;" style="text;html=1;align=center;verticalAlign=middle;resizable=0;points=[];autosize=1;strokeColor=none;fillColor=none;" parent="1" vertex="1">
                    <mxGeometry x="675" y="498.25" width="260" height="40" as="geometry"/>
                </mxCell>
                <mxCell id="36" value="" style="rounded=0;whiteSpace=wrap;html=1;" vertex="1" parent="1">
                    <mxGeometry x="1170" y="1020" width="610" height="340" as="geometry"/>
                </mxCell>
                <mxCell id="40" value="" style="rounded=0;whiteSpace=wrap;html=1;" vertex="1" parent="1">
                    <mxGeometry x="1440" y="1060" width="340" height="300" as="geometry"/>
                </mxCell>
                <mxCell id="39" value="レイヤー" style="text;html=1;align=center;verticalAlign=middle;resizable=0;points=[];autosize=1;strokeColor=none;fillColor=none;" vertex="1" parent="1">
                    <mxGeometry x="1440" y="1060" width="70" height="30" as="geometry"/>
                </mxCell>
                <mxCell id="43" value="" style="rounded=1;whiteSpace=wrap;html=1;" vertex="1" parent="1">
                    <mxGeometry x="1440" y="1225" width="150" height="100" as="geometry"/>
                </mxCell>
                <mxCell id="44" value="選択しているレイヤー画面" style="text;html=1;align=center;verticalAlign=middle;resizable=0;points=[];autosize=1;strokeColor=none;fillColor=none;" vertex="1" parent="1">
                    <mxGeometry x="1430" y="1255" width="170" height="30" as="geometry"/>
                </mxCell>
                <mxCell id="45" value="" style="rounded=0;whiteSpace=wrap;html=1;" vertex="1" parent="1">
                    <mxGeometry x="1590" y="1060" width="190" height="60" as="geometry"/>
                </mxCell>
                <mxCell id="42" value="レイヤー5" style="text;html=1;align=center;verticalAlign=middle;resizable=0;points=[];autosize=1;strokeColor=none;fillColor=none;" vertex="1" parent="1">
                    <mxGeometry x="1590" y="1060" width="80" height="30" as="geometry"/>
                </mxCell>
                <mxCell id="46" value="" style="rounded=0;whiteSpace=wrap;html=1;" vertex="1" parent="1">
                    <mxGeometry x="1590" y="1120" width="190" height="60" as="geometry"/>
                </mxCell>
                <mxCell id="47" value="" style="rounded=0;whiteSpace=wrap;html=1;" vertex="1" parent="1">
                    <mxGeometry x="1590" y="1180" width="190" height="60" as="geometry"/>
                </mxCell>
                <mxCell id="48" value="" style="rounded=0;whiteSpace=wrap;html=1;" vertex="1" parent="1">
                    <mxGeometry x="1590" y="1240" width="190" height="60" as="geometry"/>
                </mxCell>
                <mxCell id="49" value="" style="rounded=0;whiteSpace=wrap;html=1;" vertex="1" parent="1">
                    <mxGeometry x="1590" y="1300" width="190" height="60" as="geometry"/>
                </mxCell>
                <mxCell id="50" value="レイヤー４" style="text;html=1;align=center;verticalAlign=middle;resizable=0;points=[];autosize=1;strokeColor=none;fillColor=none;" vertex="1" parent="1">
                    <mxGeometry x="1590" y="1120" width="80" height="30" as="geometry"/>
                </mxCell>
                <mxCell id="51" value="レイヤー３" style="text;html=1;align=center;verticalAlign=middle;resizable=0;points=[];autosize=1;strokeColor=none;fillColor=none;" vertex="1" parent="1">
                    <mxGeometry x="1590" y="1180" width="80" height="30" as="geometry"/>
                </mxCell>
                <mxCell id="52" value="レイヤー２" style="text;html=1;align=center;verticalAlign=middle;resizable=0;points=[];autosize=1;strokeColor=none;fillColor=none;" vertex="1" parent="1">
                    <mxGeometry x="1590" y="1240" width="80" height="30" as="geometry"/>
                </mxCell>
                <mxCell id="53" value="レイヤー１" style="text;html=1;align=center;verticalAlign=middle;resizable=0;points=[];autosize=1;strokeColor=none;fillColor=none;" vertex="1" parent="1">
                    <mxGeometry x="1590" y="1300" width="80" height="30" as="geometry"/>
                </mxCell>
                <mxCell id="57" value="三" style="text;html=1;align=center;verticalAlign=middle;resizable=0;points=[];autosize=1;strokeColor=none;fillColor=none;" vertex="1" parent="1">
                    <mxGeometry x="1740" y="1075" width="40" height="30" as="geometry"/>
                </mxCell>
                <mxCell id="58" value="三" style="text;html=1;align=center;verticalAlign=middle;resizable=0;points=[];autosize=1;strokeColor=none;fillColor=none;" vertex="1" parent="1">
                    <mxGeometry x="1740" y="1135" width="40" height="30" as="geometry"/>
                </mxCell>
                <mxCell id="59" value="三" style="text;html=1;align=center;verticalAlign=middle;resizable=0;points=[];autosize=1;strokeColor=none;fillColor=none;" vertex="1" parent="1">
                    <mxGeometry x="1740" y="1195" width="40" height="30" as="geometry"/>
                </mxCell>
                <mxCell id="61" value="三" style="text;html=1;align=center;verticalAlign=middle;resizable=0;points=[];autosize=1;strokeColor=none;fillColor=none;" vertex="1" parent="1">
                    <mxGeometry x="1740" y="1255" width="40" height="30" as="geometry"/>
                </mxCell>
                <mxCell id="62" value="三" style="text;html=1;align=center;verticalAlign=middle;resizable=0;points=[];autosize=1;strokeColor=none;fillColor=none;" vertex="1" parent="1">
                    <mxGeometry x="1740" y="1315" width="40" height="30" as="geometry"/>
                </mxCell>
                <mxCell id="64" value="＋" style="text;html=1;align=center;verticalAlign=middle;resizable=0;points=[];autosize=1;strokeColor=none;fillColor=none;fontStyle=1" vertex="1" parent="1">
                    <mxGeometry x="1440" y="1327.5" width="40" height="30" as="geometry"/>
                </mxCell>
                <mxCell id="65" value="" style="shape=image;imageAspect=0;aspect=fixed;verticalLabelPosition=bottom;verticalAlign=top;image=data:image/png,iVBORw0KGgoAAAANSUhEUgAAAEAAAABACAYAAACqaXHeAAAAGXRFWHRTb2Z0d2FyZQBBZG9iZSBJbWFnZVJlYWR5ccllPAAAAilJREFUeNrsW4GNhCAQ9D5fAN8BHbwdaClXwn0ln6vo/ArECsQKzg58TTBvLuZlkWVdZJINOYN7MLDDopJlYSBGe4w2WNrD3BMNIJ1fkhAFpEPnZ5PYjXsPRMAS/Whfo+mVet8vU1+u1POKtwAE5CvXestrOXbjLgg+SzOKU+M/Tek6lafRV6M1ppxIqo5CgDSdncrClDKQrmhjP6asXEPlApjG0tOoYpKynC3z793x2+5QcWpr9+oI584vSXAe/SESy12WwZhSUUGZBxwapycgIWE7reW+ApRJA3amwkPMfUzLYCJgG4px/5QPAnrGBPQpBDwQoBn3T/sgoGNMQEcRAvODSxvtUJYiC/HpHTdg6nk1910BT2paTz5f7UaxDGrL+NOAWNWOeqQoQqBE3pyxyQT7g/oCE1BhZWEBfFWUMyBthmIiADIFC8T2Fr7DxpYAVxHyIV6o/40dAuogPnYTwHFDpH0SwHFD1FGFQJSZ4OlF0FWIGg8EuPpQVCGQMkEkCEoCoCGAIYQ5ZQikTPDsmSC3bFBTE4AhWIKaAEzBovIJIsBFjKhEsMcgwCUjoxLBhjoETp8Jzo+u5D91pBE2YVFv6ZMMU3YHeS1Vj/bMtl+Pbb0Wexpf3r4MWwLzzJCNakvL5S/nFgJsADkyI8x05IAP26UQemZoiG1goSHA4YsxhakBdwYEoLcRuiSFtDoEw+KgJNRZ4GM+1+wYp8rq7O8bIjB+BRgAwDIM24uFjtQAAAAASUVORK5CYII=;" vertex="1" parent="1">
                    <mxGeometry x="1550" y="1330" width="25" height="25" as="geometry"/>
                </mxCell>
                <mxCell id="66" value="&lt;div&gt;↑&lt;/div&gt;レイヤー追加ボタン" style="text;html=1;align=center;verticalAlign=middle;resizable=0;points=[];autosize=1;strokeColor=none;fillColor=none;" vertex="1" parent="1">
                    <mxGeometry x="1395" y="1360" width="130" height="40" as="geometry"/>
                </mxCell>
                <mxCell id="67" value="&lt;div&gt;↑&lt;/div&gt;レイヤー削除ボタン" style="text;html=1;align=center;verticalAlign=middle;resizable=0;points=[];autosize=1;strokeColor=none;fillColor=none;" vertex="1" parent="1">
                    <mxGeometry x="1497.5" y="1370" width="130" height="40" as="geometry"/>
                </mxCell>
            </root>
        </mxGraphModel>
    </diagram>
</mxfile>